<svg width="590" height="516" viewBox="0 0 590 516" fill="none" xmlns="http://www.w3.org/2000/svg">
<path d="M468.018 498.78C517.288 498.78 557.229 475.719 557.229 447.272C557.229 418.826 517.288 395.765 468.018 395.765C418.748 395.765 378.807 418.826 378.807 447.272C378.807 475.719 418.748 498.78 468.018 498.78Z" fill="#A8DADC"/>
<path d="M294.874 515.721C350.515 515.721 395.622 489.683 395.622 457.563C395.622 425.443 350.515 399.405 294.874 399.405C239.233 399.405 194.127 425.443 194.127 457.563C194.127 489.683 239.233 515.721 294.874 515.721Z" fill="#A8DADC"/>
<path d="M118.706 498.78C167.976 498.78 207.917 475.719 207.917 447.272C207.917 418.826 167.976 395.765 118.706 395.765C69.4361 395.765 29.495 418.826 29.495 447.272C29.495 475.719 69.4361 498.78 118.706 498.78Z" fill="#A8DADC"/>
<path d="M510.621 143.756C501.983 134.852 487.632 114.089 487.632 114.089L478.784 83.484C478.574 83.568 483.292 83.582 484.72 83.484C494.282 84.128 497.097 84.8841 503.047 91.4503C507.765 96.6165 525.224 123.763 531.496 132.052L548.66 108.335C552.636 102.315 551.992 95.5804 554.064 90.6523C556.137 85.7241 559.469 83.568 562.143 79.1299C564.817 74.6917 565.461 71.7796 567.659 74.0477C569.857 76.3158 567.323 82.448 566.987 83.848C566.651 85.2481 563.319 89.4482 568.905 87.2361C574.491 85.0241 583.143 74.8317 585.384 72.7456C587.624 70.6596 588.786 73.8937 588.282 76.4558C587.778 79.0179 590.186 84.8561 589.304 89.0562C588.38 93.5503 587.722 95.6084 583.395 99.9626C579.349 104.037 569.479 109.021 565.615 114.355C561.751 119.689 553.504 136.266 548.464 146.262C542.052 158.961 535.024 166.185 526.736 159.087C520.379 153.556 513.827 147.06 510.621 143.756Z" fill="#FFBDA7"/>
<path d="M488.528 83.246C495.85 83.918 499.729 85.5841 507.037 95.1604C514.345 104.737 531.314 129.952 531.314 129.952L545.972 112.017C545.972 112.017 556.067 119.703 561.373 128.692C561.373 128.692 547.19 152.492 541.506 158.499C535.822 164.505 531.426 164.981 523.697 158.499C515.969 152.016 493.68 127.432 493.68 127.432L488.528 83.246Z" fill="#A8DADC"/>
<path d="M531.314 129.952C527.996 134.754 525.854 142.552 526.442 146.486C526.442 146.486 521.822 141.166 529.592 127.404L531.314 129.952Z" fill="white"/>
<path d="M423.93 440.356H440.577L443.895 410.885H423.93V440.356Z" fill="#FFBDA7"/>
<path d="M478.924 410.045L496.663 410.633L496.341 380.126L476.278 379.734L478.924 410.045Z" fill="#FFBDA7"/>
<path d="M424.112 203.468C423.79 219.625 420.36 326.546 420.36 326.546C419.174 335.284 418.469 344.08 418.246 352.895C417.798 374.26 422.278 424.97 422.278 424.97C423.272 429.576 440.479 431.452 442.761 427.294C442.761 427.294 452.169 353.735 454.843 332.594C457.167 314.142 464.854 253.8 464.854 253.8L470.79 313.092C470.563 320.002 470.726 326.92 471.28 333.812C471.966 343.613 476.88 401.281 476.88 401.281C476.964 404.879 494.857 407.847 497.881 402.555C497.881 402.555 503.481 318.328 503.719 309.354C503.915 299.119 502.487 202.306 502.487 202.306L424.112 203.468Z" fill="#37474F"/>
<path d="M441.529 431.886L441.809 429.38C442.733 429.38 443.139 430.416 443.517 432.628C444.3 437.345 445.786 441.918 447.927 446.194C450.727 452.005 452.407 454.427 457.979 461.427C459.295 463.093 462.278 465.739 463.328 467.587C464.378 469.435 464.728 474.587 462.964 475.777C456.467 480.104 446.597 480.23 439.611 478.186C436.963 477.542 434.574 476.107 432.763 474.07C430.952 472.034 429.805 469.494 429.474 466.789C428.34 460.433 427.738 456.499 424.504 451.697C423.314 449.933 421.396 448.504 420.598 446.544C419.198 443.002 420.304 439.026 421.228 435.498C422.026 432.46 422.894 429.114 423.93 429.394V431.27C425.176 432.67 429.53 434.07 433.451 434.182C435.971 434.28 441.557 433.818 441.529 431.886Z" fill="#263238"/>
<path d="M496.607 405.817C497.041 406.111 498.007 407.217 499.841 408.925C501.667 410.513 503.584 411.995 505.581 413.363C509.641 416.337 513.908 419.018 518.349 421.386C523.628 424.284 528.388 426.048 534.702 428.89C535.364 429.156 535.965 429.557 536.466 430.066C536.848 430.517 537.113 431.056 537.236 431.634C537.42 432.826 537.271 434.046 536.804 435.158C536.337 436.27 535.57 437.231 534.59 437.934C532.611 439.317 530.365 440.271 527.996 440.734C522.639 442.238 516.996 442.406 511.559 441.224C506.861 439.893 502.402 437.834 498.343 435.12C494.961 432.722 491.111 431.067 487.044 430.262C483.502 429.758 479.148 429.926 476.068 427.812C472.666 425.46 474.024 420.433 474.99 416.107C476.04 411.403 476.278 404.207 478.42 404.361L478.588 406.251C478.784 408.281 483.712 409.219 487.52 409.219C490.684 409.219 496.663 408.393 496.635 406.909L496.607 405.817Z" fill="#263238"/>
<path d="M466.674 231.175C473.464 228.546 479.654 224.575 484.874 219.499C484.874 219.499 481.976 227.899 470.09 234.899L470.874 308.682L464.881 253.772L466.674 231.175Z" fill="#263238"/>
<path d="M450.937 81.44C447.927 82.154 438.337 84.7441 430.552 87.4882C426.627 88.9868 423.222 91.5939 420.752 94.9924C415.152 103.239 420.192 121.593 424.35 156.09C424.042 178.379 423.398 206.1 423.398 206.1C433.647 213.562 481.458 218.631 503.033 202.88C503.033 202.88 503.747 119.227 502.319 108.349C499.519 87.5162 491.441 81.958 474.612 80.9779L450.937 81.44Z" fill="#1D3557"/>
<path opacity="0.6" d="M450.937 81.44C447.927 82.154 438.337 84.7441 430.552 87.4882C426.627 88.9868 423.222 91.5939 420.752 94.9924C415.152 103.239 420.192 121.593 424.35 156.09C424.042 178.379 423.398 206.1 423.398 206.1C433.647 213.562 481.458 218.631 503.033 202.88C503.033 202.88 503.747 119.227 502.319 108.349C499.519 87.5162 491.441 81.958 474.612 80.9779L450.937 81.44Z" fill="#A8DADC"/>
<path d="M480.324 105.885C481.836 111.093 490.783 147.69 489.522 160.571C488.562 167.18 486.775 173.643 484.202 179.807C480.324 188.978 477.734 180.773 475.578 175.355C473.754 170.304 472.532 165.054 471.938 159.717C471.224 152.8 474.01 131.786 472.932 107.145C473.746 105.998 474.981 105.222 476.367 104.985C477.753 104.749 479.176 105.073 480.324 105.885Z" fill="#1D3557"/>
<path opacity="0.2" d="M480.324 105.885C481.836 111.093 490.783 147.69 489.522 160.571C488.562 167.18 486.775 173.643 484.202 179.807C480.324 188.978 477.734 180.773 475.578 175.355C473.754 170.304 472.532 165.054 471.938 159.717C471.224 152.8 474.01 131.786 472.932 107.145C473.746 105.998 474.981 105.222 476.367 104.985C477.753 104.749 479.176 105.073 480.324 105.885Z" fill="black"/>
<path d="M480.66 94.1244C484.202 97.1485 480.324 105.871 480.324 105.871C477.79 105.325 475.142 105.776 472.932 107.131C472.932 107.131 465.932 104.121 465.862 98.8845C465.862 94.1244 470.916 95.6504 474.514 95.0204C478.28 94.3624 480.24 91.5763 480.66 94.1244Z" fill="#1D3557"/>
<path opacity="0.2" d="M480.66 94.1244C484.202 97.1485 480.324 105.871 480.324 105.871C477.79 105.325 475.142 105.776 472.932 107.131C472.932 107.131 465.932 104.121 465.862 98.8845C465.862 94.1244 470.916 95.6504 474.514 95.0204C478.28 94.3624 480.24 91.5763 480.66 94.1244Z" fill="black"/>
<path opacity="0.2" d="M480.324 105.885C479.75 103.841 476.964 104.037 474.724 103.337C473.468 102.839 472.417 101.931 471.742 100.761C470.594 98.7865 471.742 95.5104 473.338 95.1604C469.908 95.3984 465.834 94.6144 465.848 98.8845C465.848 104.121 472.918 107.131 472.918 107.131C475.134 105.777 477.787 105.331 480.324 105.885Z" fill="black"/>
<path d="M455.977 33.0823C456.1 37.3843 457.495 41.5536 459.985 45.064C462.475 48.5744 465.949 51.2685 469.968 52.8065C473.988 54.3446 478.373 54.6575 482.57 53.7058C486.767 52.7542 490.589 50.5806 493.552 47.4594C496.515 44.3381 498.488 40.4091 499.22 36.1681C499.953 31.9271 499.412 27.5641 497.668 23.6297C495.923 19.6954 493.052 16.3659 489.418 14.0615C485.783 11.7571 481.547 10.5809 477.244 10.6815C474.374 10.7486 471.546 11.3821 468.923 12.5456C466.299 13.7091 463.93 15.3797 461.954 17.4613C459.978 19.5429 458.433 21.9945 457.407 24.6753C456.381 27.3561 455.895 30.2132 455.977 33.0823Z" fill="#455A64"/>
<path d="M440.479 48.9028C440.479 48.9028 444.413 65.3954 445.883 68.0835C446.858 69.7394 448.431 70.9574 450.279 71.4856L449.761 59.8232L440.479 48.9028Z" fill="#455A64"/>
<path d="M444.343 25.032C443.112 24.9245 441.872 25.098 440.718 25.5394C439.563 25.9808 438.524 26.6786 437.679 27.5801C434.878 30.6182 436.684 39.8725 440.479 48.9028L447.143 49.5049L444.343 25.032Z" fill="#455A64"/>
<path d="M449.145 49.4629C447.829 50.2889 445.869 47.7688 444.175 46.0888C442.481 44.4087 437.077 42.1966 434.528 47.8948C431.98 53.593 437.217 61.1813 441.529 62.4133C448.865 64.5274 449.845 59.8232 449.845 59.8232L451.091 89.5602C456.285 95.9025 468.508 96.2525 474.57 95.0204C479.414 94.0404 479.484 90.6103 474.71 85.3461L474.486 76.8198C477.733 77.2641 481.019 77.358 484.286 77.0998C489.62 76.1338 492.91 71.8356 494.381 65.9974C496.621 57.0791 497.181 47.1248 494.927 30.8282C492.126 10.7935 468.676 11.2276 456.257 19.3898C443.839 27.5521 449.145 49.4629 449.145 49.4629Z" fill="#FFBDA7"/>
<path d="M449.201 51.7029C448.529 51.7029 445.869 47.5028 444.175 46.1027C441.837 44.0727 444.343 25.102 444.343 25.102C443.519 23.4487 443.211 21.5855 443.461 19.755C443.711 17.9246 444.506 16.2118 445.743 14.8397C448.809 11.2975 453.093 6.95739 467.43 8.30143C477.65 9.26747 488.822 12.1796 497.671 7.55941C498.572 10.4625 498.586 13.5686 497.71 16.4796C496.835 19.3906 495.11 21.9737 492.756 23.898C492.756 23.898 489.55 26.068 481.052 27.3001C472.554 28.5321 459.225 27.6221 457.405 27.4261C454.927 27.1461 454.451 29.5542 453.275 36.1344C452.183 41.8466 451.455 51.6049 449.201 51.7029Z" fill="#455A64"/>
<path d="M444.399 26.5161L436.223 22.3159C436.467 21.766 436.821 21.2715 437.263 20.8625C437.704 20.4535 438.224 20.1386 438.791 19.9369C439.358 19.7353 439.96 19.651 440.561 19.6893C441.162 19.7277 441.748 19.8878 442.285 20.1599C443.393 20.7379 444.234 21.7241 444.628 22.9102C445.023 24.0964 444.94 25.3894 444.399 26.5161Z" fill="#455A64"/>
<path d="M474.43 76.8198C474.43 76.8198 462.417 74.7057 458.189 72.6196C455.699 71.3936 453.639 69.4409 452.281 67.0194C452.971 69.4492 454.142 71.7155 455.725 73.6837C458.875 77.5198 474.514 80.2639 474.514 80.2639L474.43 76.8198Z" fill="#F0997A"/>
<path d="M470.412 46.5368C470.367 47.0034 470.187 47.4467 469.893 47.8118C469.599 48.1768 469.204 48.4475 468.758 48.5903C468.311 48.7331 467.833 48.7416 467.381 48.6149C466.93 48.4882 466.526 48.2319 466.219 47.8776C465.912 47.5233 465.716 47.0867 465.655 46.6219C465.594 46.1572 465.67 45.6847 465.875 45.2632C466.08 44.8416 466.404 44.4895 466.808 44.2505C467.211 44.0115 467.675 43.8961 468.144 43.9187C468.791 43.9653 469.394 44.2672 469.82 44.7582C470.245 45.2491 470.458 45.8889 470.412 46.5368Z" fill="#263238"/>
<path d="M468.858 37.5204L463.594 40.0825C463.262 39.3618 463.222 38.5404 463.483 37.7911C463.744 37.0417 464.286 36.4228 464.994 36.0644C465.34 35.8889 465.719 35.7875 466.107 35.7664C466.495 35.7454 466.883 35.8052 467.246 35.9421C467.609 36.0791 467.94 36.2901 468.218 36.5618C468.495 36.8335 468.713 37.16 468.858 37.5204Z" fill="#263238"/>
<path d="M471.784 62.6653L479.26 64.7094C479.142 65.2034 478.927 65.669 478.627 66.0786C478.327 66.4882 477.948 66.8336 477.512 67.0945C477.076 67.3554 476.593 67.5266 476.09 67.5978C475.587 67.6691 475.075 67.639 474.584 67.5095C473.587 67.2122 472.741 66.5448 472.221 65.6441C471.7 64.7434 471.544 63.6776 471.784 62.6653Z" fill="#F0997A"/>
<path d="M493.681 39.7465L488.08 37.8285C488.177 37.4525 488.35 37.1007 488.59 36.7954C488.83 36.4901 489.13 36.2379 489.472 36.0549C489.815 35.8719 490.191 35.7621 490.578 35.7324C490.965 35.7027 491.354 35.7538 491.72 35.8824C492.488 36.1416 493.123 36.6916 493.49 37.4141C493.856 38.1366 493.925 38.9741 493.681 39.7465Z" fill="#263238"/>
<path d="M490.88 45.8647C490.915 46.1828 490.887 46.5047 490.798 46.8119C490.708 47.1192 490.559 47.4058 490.359 47.6555C490.159 47.9051 489.912 48.1128 489.631 48.2668C489.35 48.4208 489.042 48.518 488.724 48.5528C488.077 48.5953 487.44 48.381 486.949 47.9564C486.459 47.5319 486.156 46.9312 486.106 46.2847C486.079 45.9713 486.113 45.6554 486.207 45.3553C486.302 45.0551 486.455 44.7765 486.657 44.5353C486.859 44.2942 487.107 44.0952 487.386 43.9497C487.665 43.8043 487.97 43.7152 488.283 43.6877C488.597 43.6601 488.913 43.6945 489.213 43.789C489.513 43.8835 489.792 44.0362 490.033 44.2383C490.274 44.4405 490.473 44.6882 490.618 44.9672C490.764 45.2463 490.853 45.5513 490.88 45.8647Z" fill="#263238"/>
<path d="M477.958 44.5067L478.826 58.9132L486.33 56.3091L477.958 44.5067Z" fill="#F0997A"/>
<path d="M474.514 95.0204C467.864 93.6203 452.113 87.4741 450.629 79.7879L450.433 75.5877C447.843 75.5877 446.667 78.4578 445.393 82.588C444.861 93.4523 456.327 103.379 467.794 106.053C468.178 103.534 469.038 101.111 470.328 98.9125C471.305 97.228 472.763 95.873 474.514 95.0204Z" fill="#1D3557"/>
<path d="M474.458 77.8839C476.213 78.4221 477.81 79.3837 479.106 80.6839C487.716 89.6023 482.802 101.293 482.802 101.293C482.357 99.3486 481.248 97.6206 479.666 96.4065C478.153 95.3784 476.339 94.8856 474.514 95.0064C476.628 92.7524 475.802 88.8182 474.654 85.3321L474.458 77.8839Z" fill="#1D3557"/>
<path d="M499.491 39.3545L498.329 39.2425C494.441 38.7697 490.503 38.8924 486.652 39.6065C482.9 40.6286 481.542 41.7626 479.484 41.7906C477.426 41.8186 475.928 40.6566 472.008 39.6485C467.894 38.9581 463.703 38.8591 459.561 39.3545L458.301 39.4945L440.479 44.2827C442.011 44.5243 443.419 45.2679 444.483 46.3967L457.475 42.8826C457.657 43.1346 457.839 43.3586 457.965 43.5126C458.145 43.7757 458.273 44.0702 458.343 44.3807C458.591 46.3957 459.027 48.383 459.645 50.3169C460.011 51.1148 460.524 51.8367 461.157 52.445C461.4 52.6776 461.662 52.8884 461.941 53.075L462.403 53.355C462.85 53.5962 463.319 53.7932 463.803 53.943L464.041 54.013L464.405 54.111L464.797 54.195C465.204 54.2763 465.616 54.3324 466.03 54.363H466.548H467.206C472.33 54.363 474.542 52.1789 475.9 49.9249C477.258 47.6708 477.048 44.4927 479.4 44.4927H479.624H479.834C481.57 44.8427 481.234 47.7688 482.27 49.8549C482.661 50.7337 483.206 51.5351 483.88 52.2209L484.258 52.571L484.468 52.739L484.692 52.907L484.888 53.033L485.098 53.173L485.266 53.271H485.392C486.026 53.6082 486.705 53.8533 487.408 53.999H487.59C488.406 54.1589 489.237 54.2339 490.068 54.223C494.857 54.223 496.607 51.6609 497.447 50.0229C498.181 48.0929 498.743 46.1017 499.127 44.0727C499.216 43.775 499.38 43.5051 499.603 43.2886C500.201 42.6938 500.605 41.9327 500.765 41.1046C500.777 40.7128 500.658 40.3281 500.428 40.0111C500.197 39.6942 499.867 39.4632 499.491 39.3545ZM474.626 47.8388C474.28 49.0444 473.607 50.1302 472.68 50.9749C471.115 52.2747 469.109 52.9215 467.08 52.781C466.082 52.853 465.083 52.6847 464.164 52.29C463.246 51.8953 462.435 51.2858 461.801 50.5129L461.633 50.2889C461.582 50.2174 461.535 50.1426 461.493 50.0649C461.441 50.0014 461.399 49.9307 461.367 49.8549L461.255 49.6729L461.185 49.5189C461.185 49.5189 461.185 49.4208 461.115 49.3788C461.045 49.3368 461.045 49.2388 461.017 49.1548C460.919 48.9308 460.849 48.7068 460.779 48.4968C460.779 48.3568 460.695 48.2308 460.667 48.1048C460.639 47.9788 460.555 47.6568 460.513 47.4608C460.471 47.2648 460.513 47.3908 460.513 47.3488V47.2228C460.177 45.6547 459.827 42.5746 460.737 41.8746C461.647 41.1746 463.999 40.4745 467.738 40.7546H468.144C468.723 40.8079 469.298 40.8967 469.866 41.0206L470.538 41.1606C471.106 41.295 471.666 41.4586 472.218 41.6506L472.722 41.8466L473.282 42.0846H473.394L473.59 42.1966C474.012 42.3858 474.389 42.6626 474.696 43.0086C475.48 44.0447 475.116 46.0887 474.626 47.8388ZM496.873 47.0828C496.672 48.1606 496.226 49.1777 495.568 50.0544C494.91 50.9312 494.058 51.6439 493.078 52.1369C492.191 52.5063 491.239 52.6966 490.278 52.697C489.223 52.8142 488.156 52.6612 487.176 52.2522C486.196 51.8431 485.337 51.1916 484.678 50.3589C484.641 50.3156 484.608 50.2687 484.58 50.2189C484.538 50.1662 484.501 50.11 484.468 50.0509V49.9669L484.328 49.7149L484.188 49.4208C484.186 49.3742 484.186 49.3275 484.188 49.2808V49.1548C484.18 49.1227 484.18 49.089 484.188 49.0568C484.039 48.6822 483.931 48.2926 483.866 47.8948C483.53 46.1447 483.404 44.1007 484.16 43.1346C484.916 42.1686 487.758 41.1046 490.474 40.7966C491.104 40.7966 491.692 40.6845 492.224 40.6705H493.778H494.24C494.537 40.6958 494.831 40.7379 495.123 40.7966H495.319H495.458H495.669L495.921 40.8666L496.327 41.0206C496.66 41.1443 496.971 41.3191 497.251 41.5386C497.881 42.4346 497.293 45.5287 496.873 47.0828Z" fill="#37474F"/>
<path d="M450.657 80.2499C450.657 80.2499 455.725 105.689 457.909 122.895C460.093 140.102 459.687 188.698 458.511 219.499C457.671 241.899 454.311 283.453 454.311 283.453C454.311 283.453 448.711 284.573 435.397 282.361C424 280.485 418.232 277.111 415.796 275.641C415.796 275.641 417.91 212.54 419.52 190.504C420.99 170.189 420.92 159.017 420.92 159.017L416.132 112.633C416.132 112.633 416.496 83.484 425.54 82.252C434.879 80.9779 450.657 80.2499 450.657 80.2499Z" fill="#A8DADC"/>
<path d="M442.005 121.971C442.005 120.907 441.893 118.611 441.711 115.699C440.815 101.489 442.117 80.922 446.905 79.8999L447.339 81.86C443.825 82.616 443.279 108.671 443.713 115.573C443.909 118.541 444.049 120.879 444.007 122.055L442.005 121.971Z" fill="#1D3557"/>
<path d="M423.818 231.707C421.508 227.773 421.382 224.833 417.896 221.319C416.403 219.875 415.317 218.065 414.746 216.069C413.682 212.918 413.738 209.628 413.486 206.184L393.255 207.122C393.425 214.648 394.259 222.144 395.747 229.523C399.583 246.422 403.293 253.534 410.56 255.172C422.152 257.79 425.008 252.792 420.934 244.433C419.184 240.948 417.931 237.234 417.21 233.401C418.465 234.88 419.921 236.176 421.536 237.251C422.359 237.865 423.385 238.145 424.406 238.033C425.427 237.921 426.367 237.427 427.038 236.649C427.542 235.907 425.638 234.801 423.818 231.707Z" fill="#FFBDA7"/>
<path d="M429.278 82.252C429.278 82.252 418.512 82.098 412.478 87.5301C406.444 92.9623 403.237 107.495 399.331 122.069C395.425 136.644 391.953 150.784 390.931 160.921C390.063 169.321 392.891 213.926 392.891 213.926C392.891 213.926 405.198 216.517 414.662 211.322L415.068 161.831L430.678 112.213C433.529 102.345 433.037 91.8112 429.278 82.252Z" fill="#A8DADC"/>
<path d="M450.279 71.9616C448.879 71.6676 447.577 72.4096 446.429 74.3697C445.281 76.3298 442.747 80.4459 442.747 80.4459C442.747 80.4459 441.445 94.1104 442.747 97.5125C443.881 100.453 451.399 114.313 451.399 114.313C451.399 114.313 450.909 127.81 450.783 131.842C450.657 135.874 458.469 152.702 459.351 160.515C459.351 160.515 459.743 128.748 458.581 119.913C456.565 104.513 454.045 86.1721 450.643 79.8719L450.279 71.9616Z" fill="#A8DADC"/>
<path d="M439.079 169.111H438.911V167.711C440.571 167.582 442.162 166.99 443.503 166.003C442.065 165.046 440.777 163.88 439.681 162.545C437.427 159.619 432.484 138.744 433.996 133.886C435.284 129.812 439.289 120.823 442.845 120.669H442.943C446.499 120.669 451.189 129.168 452.743 133.088C454.675 137.806 451.525 159.017 449.523 162.125C448.548 163.55 447.363 164.819 446.009 165.891C447.424 166.771 449.061 167.228 450.727 167.207L450.909 168.607C448.731 168.639 446.594 168.015 444.777 166.815C443.129 168.096 441.155 168.892 439.079 169.111ZM443.013 122.055C440.913 122.139 437.161 128.818 435.438 134.278C434.038 138.744 438.799 158.947 440.885 161.649C442.011 163.001 443.344 164.168 444.833 165.107C446.245 164.05 447.479 162.774 448.487 161.327C450.335 158.457 453.359 137.932 451.581 133.592C449.425 128.286 445.169 122.055 443.055 122.055H443.013Z" fill="#455A64"/>
<path d="M453.079 167.809C453.092 168.079 453.052 168.348 452.96 168.602C452.869 168.856 452.728 169.089 452.546 169.288C452.363 169.488 452.143 169.649 451.899 169.762C451.654 169.876 451.389 169.94 451.119 169.951C450.849 169.963 450.579 169.922 450.325 169.829C450.07 169.737 449.837 169.595 449.637 169.413C449.438 169.23 449.276 169.01 449.162 168.765C449.047 168.519 448.982 168.254 448.97 167.984C448.958 167.714 448.999 167.444 449.092 167.189C449.184 166.935 449.326 166.702 449.508 166.502C449.691 166.302 449.911 166.141 450.156 166.026C450.402 165.912 450.667 165.847 450.937 165.835C451.207 165.824 451.477 165.866 451.731 165.959C451.985 166.052 452.219 166.194 452.417 166.378C452.616 166.561 452.777 166.782 452.891 167.027C453.004 167.273 453.068 167.539 453.079 167.809Z" fill="#263238"/>
<path d="M441.039 168.313C441.05 168.583 441.008 168.853 440.915 169.107C440.822 169.361 440.679 169.594 440.496 169.793C440.313 169.992 440.092 170.153 439.846 170.267C439.601 170.38 439.335 170.444 439.065 170.455C438.795 170.468 438.526 170.428 438.272 170.336C438.018 170.245 437.784 170.104 437.585 169.921C437.386 169.739 437.225 169.519 437.111 169.274C436.998 169.03 436.933 168.765 436.923 168.495C436.911 168.225 436.952 167.955 437.045 167.7C437.137 167.446 437.278 167.213 437.461 167.013C437.644 166.813 437.864 166.652 438.109 166.537C438.354 166.423 438.619 166.358 438.89 166.346C439.16 166.334 439.43 166.375 439.684 166.468C439.939 166.56 440.172 166.702 440.372 166.884C440.571 167.067 440.733 167.287 440.847 167.532C440.962 167.777 441.027 168.043 441.039 168.313Z" fill="#263238"/>
<path d="M453.233 142.286L452.057 142.202C451.996 142.198 451.937 142.183 451.882 142.156C451.828 142.13 451.779 142.093 451.738 142.047C451.698 142.002 451.667 141.949 451.647 141.891C451.628 141.834 451.619 141.773 451.623 141.712C451.861 137.792 451.735 134.908 451.259 133.76C449.187 128.692 444.889 122.349 443.027 122.433C441.165 122.517 437.427 129.196 435.775 134.418C435.424 137.067 435.528 139.756 436.083 142.37C436.103 142.491 436.075 142.614 436.004 142.714C435.933 142.814 435.825 142.881 435.705 142.902L434.529 143.084C434.468 143.092 434.406 143.088 434.347 143.071C434.288 143.055 434.233 143.027 434.185 142.989C434.136 142.952 434.096 142.905 434.066 142.851C434.036 142.798 434.018 142.739 434.011 142.678C433.367 138.324 433.283 135.328 433.773 133.788C434.641 130.988 438.771 120.501 442.929 120.319C447.087 120.137 452.099 130.246 453.205 132.92C453.821 134.418 454.003 137.4 453.723 141.796C453.727 141.861 453.718 141.927 453.694 141.988C453.671 142.05 453.635 142.105 453.589 142.152C453.542 142.198 453.487 142.234 453.426 142.257C453.364 142.28 453.299 142.29 453.233 142.286Z" fill="#1D3557"/>
<path d="M474.43 76.8198C476.278 76.9878 477.888 79.7179 482.144 81.0199C490.096 83.372 497.321 86.9841 499.547 91.8703C503.243 99.9626 503.845 101.559 505.147 137.596C506.449 173.633 506.911 276.201 506.911 276.201C503.093 277.926 498.933 278.764 494.744 278.651C494.744 278.651 495.067 165.387 494.31 139.92C493.554 114.453 489.69 102.021 484.174 93.6204C482.62 86.6201 477.664 81.944 474.374 78.5279L474.43 76.8198Z" fill="#A8DADC"/>
<path d="M484.202 93.6484C489.718 102.049 493.569 114.467 494.339 139.948C494.423 142.972 494.507 147.228 494.577 152.338C494.577 152.338 499.113 129.266 498.315 124.337C497.517 119.409 492.197 109.273 492.197 109.273C492.883 100.873 490.922 91.2683 487.688 85.4721C486.936 84.1213 485.993 82.8859 484.888 81.804C483.813 80.9326 482.666 80.155 481.458 79.4799C479.388 78.0074 476.981 77.0783 474.458 76.7778V78.5138C477.692 81.972 482.648 86.6201 484.202 93.6484Z" fill="#A8DADC"/>
<path d="M317.611 82.084C328.181 81.916 333.865 86.6621 341.622 98.8846C348.244 109.273 363.574 134.152 367.887 141.642C372.759 150.042 373.487 153.542 369.623 159.843C365.997 165.863 331.611 205.568 331.611 205.568L322.749 189.832L344.842 152.898L318.941 114.635L317.611 82.084Z" fill="#B16668"/>
<path d="M316.925 81.5659C324.569 81.1599 329.329 82.742 333.935 87.1661C338.542 91.5903 362.272 131.436 362.272 131.436C362.272 131.436 358.856 139.598 338.836 150.266L319.235 123.665L316.925 81.5659Z" fill="#1D3557"/>
<path opacity="0.2" d="M316.925 81.5659C324.569 81.1599 329.329 82.742 333.935 87.1661C338.542 91.5903 362.272 131.436 362.272 131.436C362.272 131.436 358.856 139.598 338.836 150.266L319.235 123.665L316.925 81.5659Z" fill="black"/>
<path d="M369.427 447.314C369.791 447.314 370.351 451.431 368.335 453.167C365.997 455.183 359.136 458.501 350.064 457.367C340.992 456.233 336.064 453.391 332.465 450.367C328.867 447.342 323.743 443.044 319.641 442.134C315.833 441.294 311.703 439.572 310.485 438.396C309.267 437.22 309.435 431.984 309.435 431.984L369.427 447.314Z" fill="#455A64"/>
<path d="M313.075 411.781C312.733 411.778 312.402 411.901 312.144 412.125C311.886 412.349 311.719 412.66 311.675 412.999C311.395 414.399 311.101 418.599 310.499 421.007C309.554 425.179 309.251 429.471 309.603 433.734C310.107 436.408 316.309 438.27 320.285 439.782C324.95 441.832 329.282 444.57 333.137 447.902C337.337 451.416 346.368 455.071 352.276 455.029C359.276 455.029 367.131 452.719 368.937 449.428C371.177 445.41 369.427 443.086 359.052 438.228C357.092 437.318 350.204 433.23 347.852 431.76C341.496 427.756 335.251 422.183 332.269 415.099C332.036 414.232 331.512 413.471 330.785 412.943C330.149 412.672 329.444 412.608 328.769 412.761C327.042 413.005 325.361 413.51 323.785 414.259C322.385 414.931 320.411 415.659 320.439 417.479C320.479 418.097 320.611 418.706 320.831 419.285C320.957 419.649 321.055 420.139 320.733 420.349C320.411 420.559 320.033 420.349 319.767 420.083C318.747 419.038 317.811 417.915 316.967 416.723C316.486 416.107 315.936 415.548 315.329 415.057C314.715 414.707 314.122 414.324 313.551 413.909C312.921 413.391 313.075 412.607 313.075 411.781Z" fill="#1D3557"/>
<path opacity="0.9" d="M313.075 411.781C312.733 411.778 312.402 411.901 312.144 412.125C311.886 412.349 311.719 412.66 311.675 412.999C311.395 414.399 311.101 418.599 310.499 421.007C309.554 425.179 309.251 429.471 309.603 433.734C310.107 436.408 316.309 438.27 320.285 439.782C324.95 441.832 329.282 444.57 333.137 447.902C337.337 451.416 346.368 455.071 352.276 455.029C359.276 455.029 367.131 452.719 368.937 449.428C371.177 445.41 369.427 443.086 359.052 438.228C357.092 437.318 350.204 433.23 347.852 431.76C341.496 427.756 335.251 422.183 332.269 415.099C332.036 414.232 331.512 413.471 330.785 412.943C330.149 412.672 329.444 412.608 328.769 412.761C327.042 413.005 325.361 413.51 323.785 414.259C322.385 414.931 320.411 415.659 320.439 417.479C320.479 418.097 320.611 418.706 320.831 419.285C320.957 419.649 321.055 420.139 320.733 420.349C320.411 420.559 320.033 420.349 319.767 420.083C318.747 419.038 317.811 417.915 316.967 416.723C316.486 416.107 315.936 415.548 315.329 415.057C314.715 414.707 314.122 414.324 313.551 413.909C312.921 413.391 313.075 412.607 313.075 411.781Z" fill="#A8DADC"/>
<path d="M333.137 447.902C331.331 446.418 329.413 444.976 327.537 443.702C327.537 443.702 339.732 451.123 344.66 447.748C347.838 445.592 346.326 442.946 346.242 442.148C346.158 441.35 353.998 437.71 357.078 437.346C357.946 437.822 358.66 438.2 359.108 438.41C369.483 443.212 371.233 445.536 368.993 449.611C367.186 452.845 361.488 455.379 352.458 455.379C346.48 455.253 337.393 451.417 333.137 447.902Z" fill="#1D3557"/>
<path opacity="0.8" d="M333.137 447.902C331.331 446.418 329.413 444.976 327.537 443.702C327.537 443.702 339.732 451.123 344.66 447.748C347.838 445.592 346.326 442.946 346.242 442.148C346.158 441.35 353.998 437.71 357.078 437.346C357.946 437.822 358.66 438.2 359.108 438.41C369.483 443.212 371.233 445.536 368.993 449.611C367.186 452.845 361.488 455.379 352.458 455.379C346.48 455.253 337.393 451.417 333.137 447.902Z" fill="#A8DADC"/>
<path d="M345.276 439.628C351.73 442.204 348.972 443.408 347.18 443.674C345.388 443.94 334.579 437.584 327.901 432.348C320.999 426.888 316.701 420.923 314.083 418.921C313.131 418.165 312.095 417.255 311.185 416.387C311.353 414.987 311.493 413.685 311.619 412.999C311.663 412.66 311.83 412.349 312.088 412.125C312.346 411.901 312.677 411.778 313.019 411.781C313.019 412.607 312.893 413.391 313.523 414.021C314.094 414.436 314.688 414.819 315.301 415.169C315.909 415.66 316.458 416.219 316.939 416.835C317.783 418.027 318.719 419.15 319.739 420.195C325.395 427.336 338.892 437.052 345.276 439.628Z" fill="#1D3557"/>
<path d="M346.774 442.722C346.653 442.724 346.534 442.691 346.432 442.627C346.33 442.563 346.248 442.471 346.196 442.362C346.144 442.252 346.125 442.131 346.141 442.011C346.156 441.891 346.206 441.779 346.284 441.686C347.803 440.109 349.642 438.877 351.678 438.073C353.715 437.268 355.9 436.911 358.086 437.024C358.243 437.057 358.381 437.147 358.475 437.277C358.568 437.406 358.61 437.566 358.593 437.724C358.576 437.883 358.5 438.03 358.38 438.136C358.261 438.242 358.106 438.3 357.946 438.298C355.971 438.217 354.001 438.548 352.162 439.272C350.323 439.995 348.654 441.094 347.264 442.498C347.203 442.569 347.128 442.625 347.043 442.664C346.959 442.703 346.867 442.722 346.774 442.722Z" fill="#FAFAFA"/>
<path d="M341.146 439.264C340.997 439.259 340.854 439.205 340.74 439.11C340.611 439.001 340.531 438.847 340.515 438.679C340.499 438.512 340.55 438.345 340.656 438.214C342.18 436.646 344.021 435.42 346.056 434.618C348.091 433.817 350.273 433.458 352.458 433.566C352.542 433.573 352.624 433.597 352.699 433.636C352.774 433.675 352.84 433.729 352.893 433.794C352.947 433.86 352.987 433.935 353.011 434.016C353.034 434.097 353.042 434.182 353.032 434.266C353.023 434.349 352.998 434.429 352.958 434.502C352.918 434.576 352.864 434.64 352.799 434.692C352.734 434.744 352.659 434.783 352.579 434.806C352.499 434.829 352.415 434.836 352.332 434.826C350.355 434.747 348.384 435.08 346.543 435.803C344.701 436.526 343.03 437.623 341.636 439.026C341.578 439.101 341.503 439.161 341.418 439.202C341.333 439.243 341.24 439.265 341.146 439.264Z" fill="#FAFAFA"/>
<path d="M335.475 435.988C335.33 435.986 335.191 435.931 335.083 435.834C335.017 435.782 334.962 435.718 334.921 435.644C334.881 435.571 334.855 435.49 334.846 435.407C334.837 435.323 334.844 435.239 334.868 435.158C334.892 435.078 334.932 435.003 334.985 434.938C336.508 433.363 338.351 432.134 340.389 431.332C342.428 430.53 344.614 430.175 346.802 430.29C346.969 430.308 347.122 430.393 347.227 430.524C347.332 430.655 347.38 430.823 347.362 430.99C347.343 431.157 347.259 431.31 347.128 431.415C346.997 431.52 346.829 431.568 346.662 431.55C344.687 431.468 342.717 431.799 340.877 432.522C339.038 433.245 337.37 434.345 335.979 435.75C335.919 435.825 335.842 435.885 335.755 435.926C335.667 435.968 335.572 435.989 335.475 435.988Z" fill="#FAFAFA"/>
<path d="M330.309 432.236C330.162 432.237 330.019 432.188 329.903 432.096C329.775 431.987 329.694 431.832 329.679 431.665C329.663 431.498 329.713 431.331 329.819 431.2C331.342 429.629 333.183 428.401 335.218 427.597C337.253 426.793 339.436 426.432 341.622 426.538C341.712 426.537 341.802 426.555 341.885 426.591C341.968 426.627 342.043 426.68 342.104 426.747C342.165 426.813 342.211 426.892 342.24 426.978C342.269 427.064 342.279 427.155 342.27 427.245C342.261 427.335 342.233 427.422 342.188 427.501C342.143 427.58 342.082 427.648 342.009 427.701C341.936 427.755 341.853 427.792 341.764 427.811C341.676 427.83 341.584 427.831 341.496 427.812C339.518 427.728 337.545 428.058 335.703 428.781C333.861 429.504 332.191 430.605 330.799 432.012C330.741 432.085 330.666 432.143 330.581 432.182C330.496 432.221 330.403 432.239 330.309 432.236Z" fill="#FAFAFA"/>
<path d="M325.199 428.498C325.057 428.496 324.919 428.447 324.807 428.358C324.741 428.306 324.686 428.242 324.645 428.168C324.604 428.095 324.579 428.014 324.57 427.93C324.56 427.847 324.568 427.762 324.592 427.682C324.616 427.602 324.656 427.527 324.709 427.462C327.201 424.298 332.857 422.226 337.604 422.744C337.686 422.753 337.767 422.778 337.839 422.818C337.912 422.859 337.977 422.913 338.029 422.978C338.081 423.043 338.119 423.117 338.142 423.197C338.166 423.277 338.173 423.361 338.164 423.444C338.154 423.526 338.129 423.607 338.089 423.679C338.049 423.752 337.995 423.817 337.93 423.869C337.865 423.921 337.79 423.959 337.71 423.983C337.63 424.006 337.546 424.013 337.464 424.004C333.194 423.542 327.929 425.404 325.703 428.204C325.648 428.289 325.574 428.36 325.486 428.411C325.399 428.462 325.3 428.492 325.199 428.498Z" fill="#FAFAFA"/>
<path d="M271.367 463.303C271.633 469.463 271.087 473.621 269.281 477.444C267.475 481.266 263.471 482.792 259.215 482.162C254.959 481.532 249.344 479.25 247.622 474.083C245.9 468.917 245.774 465.263 246.152 459.481L271.367 463.303Z" fill="#455A64"/>
<path d="M250.381 420.574C248.673 420.882 248.981 429.17 248.841 437.5C248.673 446.446 246.405 450.367 246.18 457.703C245.942 466.103 246.741 469.729 250.143 474.503C253.545 479.278 264.297 483.086 268.637 475.413C272.179 469.155 271.689 462.659 270.485 454.413C269.239 445.914 268.301 439.936 267.993 433.412C267.699 427.182 267.531 421.134 265.977 420.588C265.977 421.512 265.977 422.674 265.977 423.584C265.977 424.284 266.117 427.658 265.165 427.784C265.011 427.014 264.926 426.231 264.913 425.446C264.944 424.735 264.704 424.039 264.241 423.5C263.669 423.068 262.97 422.837 262.253 422.842C260.537 422.658 258.813 422.564 257.087 422.562C256.219 422.562 255.365 422.562 254.511 422.716C253.773 422.779 253.05 422.958 252.369 423.248C252.17 423.331 251.992 423.457 251.847 423.617C251.702 423.777 251.593 423.966 251.529 424.172C251.473 424.487 251.473 424.809 251.529 425.124C251.599 425.696 251.599 426.274 251.529 426.846C251.529 427.098 251.361 427.42 251.109 427.378C250.857 427.336 250.801 427.112 250.773 426.902C250.675 425.908 250.773 425.166 250.647 424.004C250.647 423.472 250.647 422.73 250.647 422.184C250.647 421.638 250.395 421.106 250.381 420.574Z" fill="#1D3557"/>
<path opacity="0.9" d="M250.381 420.574C248.673 420.882 248.981 429.17 248.841 437.5C248.673 446.446 246.405 450.367 246.18 457.703C245.942 466.103 246.741 469.729 250.143 474.503C253.545 479.278 264.297 483.086 268.637 475.413C272.179 469.155 271.689 462.659 270.485 454.413C269.239 445.914 268.301 439.936 267.993 433.412C267.699 427.182 267.531 421.134 265.977 420.588C265.977 421.512 265.977 422.674 265.977 423.584C265.977 424.284 266.117 427.658 265.165 427.784C265.011 427.014 264.926 426.231 264.913 425.446C264.944 424.735 264.704 424.039 264.241 423.5C263.669 423.068 262.97 422.837 262.253 422.842C260.537 422.658 258.813 422.564 257.087 422.562C256.219 422.562 255.365 422.562 254.511 422.716C253.773 422.779 253.05 422.958 252.369 423.248C252.17 423.331 251.992 423.457 251.847 423.617C251.702 423.777 251.593 423.966 251.529 424.172C251.473 424.487 251.473 424.809 251.529 425.124C251.599 425.696 251.599 426.274 251.529 426.846C251.529 427.098 251.361 427.42 251.109 427.378C250.857 427.336 250.801 427.112 250.773 426.902C250.675 425.908 250.773 425.166 250.647 424.004C250.647 423.472 250.647 422.73 250.647 422.184C250.647 421.638 250.395 421.106 250.381 420.574Z" fill="#A8DADC"/>
<path d="M246.335 455.309C246.335 456.513 246.068 464.521 248.365 465.725C250.661 466.929 251.501 460.699 251.501 460.699C251.501 460.699 256.807 458.473 265.109 461.147C264.829 462.477 266.509 466.579 268.567 465.473C270.625 464.367 270.583 455.211 270.583 455.099C271.717 462.981 272.067 469.281 268.637 475.357C264.297 483.03 253.545 479.152 250.143 474.447C246.741 469.743 245.942 466.047 246.18 457.647C246.208 456.863 246.265 456.065 246.335 455.309Z" fill="#1D3557"/>
<path opacity="0.8" d="M246.335 455.309C246.335 456.513 246.068 464.521 248.365 465.725C250.661 466.929 251.501 460.699 251.501 460.699C251.501 460.699 256.807 458.473 265.109 461.147C264.829 462.477 266.509 466.579 268.567 465.473C270.625 464.367 270.583 455.211 270.583 455.099C271.717 462.981 272.067 469.281 268.637 475.357C264.297 483.03 253.545 479.152 250.143 474.447C246.741 469.743 245.942 466.047 246.18 457.647C246.208 456.863 246.265 456.065 246.335 455.309Z" fill="#A8DADC"/>
<path d="M252.187 461.161C252.453 464.157 249.386 463.443 248.84 459.229C248.294 455.015 249.596 444.766 248.84 437.5C248.994 429.17 248.672 420.882 250.38 420.574C250.38 420.686 250.38 420.784 250.38 420.882L250.576 425.082C250.576 425.698 250.576 426.23 250.66 426.874C251.235 432.992 251.557 444.864 251.599 450.493C251.598 454.057 251.794 457.618 252.187 461.161Z" fill="#1D3557"/>
<path d="M264.171 461.161C264.558 457.623 264.75 454.066 264.745 450.506C264.745 444.906 265.109 433.174 265.669 427.042C265.881 425.897 265.965 424.733 265.921 423.57C265.921 422.73 265.921 421.666 265.921 420.769C265.928 420.709 265.928 420.648 265.921 420.587C267.055 420.993 267.447 424.298 267.699 428.456C267.699 430.864 267.62 433.879 267.461 437.5C266.705 444.766 268.021 455.085 267.461 459.285C266.901 463.485 263.905 464.157 264.171 461.161Z" fill="#1D3557"/>
<path d="M265.291 461.371H265.053C260.741 459.874 256.051 459.874 251.739 461.371C251.658 461.415 251.569 461.442 251.478 461.449C251.386 461.456 251.294 461.444 251.208 461.412C251.122 461.381 251.043 461.332 250.977 461.267C250.912 461.203 250.861 461.126 250.827 461.04C250.794 460.954 250.78 460.863 250.785 460.771C250.79 460.679 250.814 460.59 250.857 460.509C250.9 460.427 250.959 460.356 251.031 460.299C251.104 460.243 251.187 460.202 251.277 460.181C255.858 458.52 260.872 458.49 265.473 460.097C265.552 460.126 265.624 460.171 265.685 460.229C265.746 460.287 265.795 460.356 265.829 460.433C265.863 460.51 265.881 460.593 265.883 460.677C265.884 460.761 265.869 460.845 265.837 460.923C265.798 461.042 265.726 461.147 265.629 461.226C265.533 461.306 265.415 461.356 265.291 461.371Z" fill="#FAFAFA"/>
<path d="M266.075 454.749C266.001 454.762 265.925 454.762 265.851 454.749C260.996 453.234 255.795 453.234 250.941 454.749C250.859 454.791 250.769 454.815 250.676 454.82C250.584 454.824 250.492 454.809 250.407 454.775C250.321 454.741 250.243 454.689 250.18 454.622C250.116 454.555 250.067 454.476 250.037 454.389C250.006 454.302 249.995 454.209 250.004 454.117C250.012 454.025 250.04 453.936 250.086 453.856C250.132 453.776 250.195 453.707 250.269 453.653C250.344 453.6 250.43 453.563 250.521 453.545C255.649 451.916 261.156 451.916 266.285 453.545C266.444 453.602 266.574 453.719 266.647 453.871C266.72 454.022 266.731 454.197 266.677 454.357C266.626 454.473 266.541 454.573 266.434 454.642C266.327 454.712 266.203 454.749 266.075 454.749Z" fill="#FAFAFA"/>
<path d="M250.73 448.462C250.588 448.457 250.451 448.404 250.342 448.313C250.233 448.221 250.157 448.096 250.126 447.956C250.096 447.817 250.113 447.671 250.174 447.543C250.235 447.414 250.337 447.309 250.464 447.244C257.885 443.87 265.865 447.006 266.187 447.146C266.266 447.176 266.338 447.221 266.399 447.278C266.46 447.336 266.509 447.406 266.543 447.483C266.577 447.56 266.595 447.643 266.597 447.727C266.598 447.811 266.582 447.894 266.551 447.972C266.483 448.128 266.358 448.251 266.201 448.316C266.045 448.381 265.869 448.384 265.711 448.322C265.711 448.322 257.899 445.256 250.996 448.406C250.911 448.438 250.821 448.457 250.73 448.462Z" fill="#FAFAFA"/>
<path d="M250.591 442.596C250.47 442.599 250.351 442.565 250.249 442.501C250.147 442.436 250.066 442.343 250.017 442.232C249.979 442.157 249.956 442.075 249.95 441.991C249.945 441.907 249.956 441.823 249.983 441.743C250.011 441.664 250.054 441.59 250.11 441.528C250.166 441.465 250.234 441.414 250.311 441.378C252.823 440.233 255.547 439.627 258.308 439.598C261.069 439.569 263.805 440.118 266.341 441.21C266.495 441.283 266.613 441.414 266.671 441.574C266.729 441.734 266.721 441.91 266.649 442.064C266.574 442.216 266.442 442.331 266.282 442.386C266.122 442.441 265.948 442.431 265.795 442.358C263.424 441.368 260.876 440.873 258.307 440.904C255.738 440.936 253.202 441.492 250.857 442.54C250.773 442.579 250.682 442.598 250.591 442.596Z" fill="#FAFAFA"/>
<path d="M250.451 436.016C250.33 436.015 250.213 435.98 250.112 435.916C250.01 435.852 249.929 435.76 249.876 435.652C249.804 435.5 249.794 435.325 249.849 435.165C249.904 435.005 250.019 434.873 250.171 434.798C257.787 431.046 265.991 434.63 266.327 434.798C266.403 434.832 266.472 434.881 266.53 434.941C266.587 435.002 266.632 435.073 266.662 435.151C266.692 435.229 266.706 435.312 266.704 435.396C266.702 435.479 266.683 435.562 266.649 435.638C266.615 435.714 266.566 435.783 266.506 435.841C266.445 435.898 266.374 435.943 266.296 435.973C266.218 436.003 266.135 436.017 266.051 436.015C265.968 436.013 265.885 435.994 265.809 435.96C265.725 435.96 257.801 432.46 250.731 435.96C250.643 435.999 250.547 436.019 250.451 436.016Z" fill="#A8DADC"/>
<path d="M260.895 165.933C256.204 176.721 253.156 188.151 251.851 199.842C248.574 242.375 250.339 303.446 250.339 303.446C249.961 307.898 247.146 317.992 245.256 337.551C243.016 360.665 245.83 438.998 245.83 438.998C245.83 438.998 259.649 447.244 270.415 437.864C270.415 437.864 282.918 330.186 285.816 307.198C288.35 287.149 295.42 243.747 295.42 243.747L303.694 307.926C303.694 307.926 302.924 325.972 303.47 337.635C304.086 351.201 307.88 420.322 307.88 420.322C307.88 420.322 326.879 426.748 335.363 417.619C335.363 417.619 337.379 321.744 337.674 305.42C338.234 273.4 337.673 215.047 332.479 181.459L260.895 165.933Z" fill="#1D3557"/>
<path opacity="0.2" d="M260.895 165.933C256.204 176.721 253.156 188.151 251.851 199.842C248.574 242.375 250.339 303.446 250.339 303.446C249.961 307.898 247.146 317.992 245.256 337.551C243.016 360.665 245.83 438.998 245.83 438.998C245.83 438.998 259.649 447.244 270.415 437.864C270.415 437.864 282.918 330.186 285.816 307.198C288.35 287.149 295.42 243.747 295.42 243.747L303.694 307.926C303.694 307.926 302.924 325.972 303.47 337.635C304.086 351.201 307.88 420.322 307.88 420.322C307.88 420.322 326.879 426.748 335.363 417.619C335.363 417.619 337.379 321.744 337.674 305.42C338.234 273.4 337.673 215.047 332.479 181.459L260.895 165.933Z" fill="black"/>
<path opacity="0.2" d="M295.42 243.734L298.388 223.321C298.388 223.321 315.637 221.011 323.449 213.674C321.211 217.176 318.23 220.141 314.716 222.36C311.203 224.579 307.244 225.997 303.12 226.513L300.082 244.98L302.7 300.225L295.42 243.734Z" fill="black"/>
<path d="M331.177 135.202C330.421 143.602 330.239 159.997 330.239 159.997C333.277 181.445 335.713 202.39 335.713 202.39C303.68 219.485 255.337 205.652 249.246 198.596C252.257 177.595 258.893 164.519 263.247 152.702L255.225 116.959C255.225 116.959 269.043 105.465 267.825 82.154L286.754 80.1799L304.814 80.6979L317.653 81.6079C324.098 87.8572 329.741 94.8833 334.453 102.525C340.6 112.577 340.838 125.079 331.177 135.202Z" fill="#1D3557"/>
<path opacity="0.1" d="M309.435 133.886C309.435 133.886 301.034 141.278 290.814 138.352C287.942 137.639 285.301 136.197 283.148 134.167C280.995 132.136 279.402 129.585 278.522 126.76C278.522 126.76 278.186 138.296 291.122 141.404C294.577 142.283 298.223 142.026 301.521 140.672C304.819 139.318 307.594 136.939 309.435 133.886Z" fill="black"/>
<path d="M282.764 68.8395C282.764 65.6334 278.255 58.9552 274.139 51.4649C270.023 43.9747 265.585 31.9343 274.139 20.6639C282.694 9.39349 302.042 2.64526 313.439 8.06345C324.835 13.4816 328.013 26.4321 328.013 26.4321L282.764 68.8395Z" fill="#37474F"/>
<path d="M270.513 42.1686C270.52 42.141 270.52 42.1122 270.513 42.0846C270.102 41.4074 269.453 40.9081 268.693 40.6846C267.839 40.3672 266.93 40.2197 266.019 40.2506C264.941 40.2506 262.883 41.0206 262.953 42.4206C263.023 44.0727 265.753 44.2547 266.929 44.1987C267.949 44.1824 268.962 44.027 269.939 43.7367C269.956 45.69 269.677 47.6346 269.113 49.5049C268.767 50.36 268.22 51.1189 267.517 51.7169C267.046 52.0844 266.497 52.3397 265.913 52.4634C265.328 52.5871 264.723 52.576 264.143 52.431C263.485 52.319 263.765 53.257 264.143 53.397C265.237 53.7011 266.403 53.6144 267.441 53.152C268.478 52.6895 269.322 51.8801 269.827 50.8629C271.227 48.3848 270.709 45.5147 271.311 42.8266C271.451 42.4346 270.933 42.1126 270.513 42.1686ZM265.179 43.0366C264.969 43.0366 264.423 42.8966 264.297 42.6866C264.171 42.4766 264.367 42.3926 264.493 42.2526C264.995 41.8591 265.589 41.6009 266.219 41.5028C266.849 41.4048 267.494 41.4701 268.091 41.6926C268.431 41.7656 268.764 41.8686 269.085 42.0006C269.259 42.0778 269.427 42.1666 269.589 42.2666L269.799 42.3786H269.925C269.053 42.8053 268.096 43.0302 267.125 43.0366C266.48 43.1273 265.825 43.1273 265.179 43.0366Z" fill="#1D3557"/>
<path d="M320.299 16.3797C324.499 18.5638 330.547 23.226 329.623 44.9967C328.895 62.0073 322.623 69.8476 319.823 71.3316C317.023 72.8157 313.327 73.1797 307.642 72.5777V82.252C307.642 82.252 314.195 99.6406 310.218 108.475C304.956 105.629 300.034 102.196 295.546 98.2405C285.914 88.9862 283.03 84.6461 283.03 84.6461L282.68 58.8992C282.68 58.8992 278.899 61.6993 272.991 57.1071C268.105 53.327 266.131 46.5928 269.519 42.7146C270.407 41.7364 271.531 41.0026 272.784 40.5834C274.036 40.1642 275.376 40.0737 276.673 40.3206C278.091 40.6341 279.419 41.2693 280.552 42.1772C281.686 43.0851 282.596 44.2414 283.212 45.5567C283.478 46.0748 283.884 46.6208 284.458 46.6768C284.676 46.6861 284.894 46.6441 285.093 46.5542C285.293 46.4642 285.468 46.3288 285.606 46.1588C285.873 45.8141 286.069 45.4188 286.18 44.9967C287.398 41.3846 286.824 37.6045 287.678 33.9223C288.343 31.0826 289.592 28.4124 291.346 26.0821C295.51 20.7345 301.57 17.191 308.272 16.1837C312.263 15.5627 316.331 15.629 320.299 16.3797Z" fill="#B16668"/>
<path d="M328.167 26.8381C322.47 23.3254 315.733 21.8909 309.098 22.7779C301.845 23.9424 294.912 26.6028 288.742 30.5902C289.434 28.9953 290.303 27.4832 291.332 26.0821C295.508 20.7339 301.576 17.1911 308.286 16.1837C312.267 15.558 316.325 15.6195 320.285 16.3657C322.945 17.6818 326.277 20.0479 328.167 26.8381Z" fill="#B16668"/>
<path d="M303.512 40.0825C303.591 40.7452 303.404 41.4122 302.992 41.9371C302.58 42.462 301.977 42.8021 301.314 42.8826C300.999 42.9276 300.677 42.908 300.369 42.8249C300.062 42.7418 299.774 42.5969 299.524 42.3992C299.274 42.2015 299.066 41.955 298.915 41.6747C298.763 41.3943 298.669 41.0861 298.64 40.7686C298.589 40.1197 298.79 39.476 299.202 38.9723C299.615 38.4686 300.206 38.144 300.852 38.0665C301.16 38.0231 301.472 38.0409 301.773 38.1189C302.073 38.1969 302.355 38.3335 302.602 38.5209C302.849 38.7083 303.057 38.9428 303.213 39.2108C303.369 39.4788 303.471 39.7751 303.512 40.0825Z" fill="black"/>
<path d="M304.226 56.3791L312.795 58.5492C312.678 59.1252 312.446 59.6715 312.112 60.155C311.778 60.6385 311.349 61.0492 310.851 61.3621C310.354 61.6749 309.798 61.8835 309.218 61.9752C308.637 62.0668 308.044 62.0397 307.474 61.8953C306.327 61.5702 305.35 60.8155 304.745 59.7881C304.14 58.7608 303.954 57.5398 304.226 56.3791Z" fill="#9A4A4D"/>
<path d="M325.521 34.3703L320.551 31.9063C320.695 31.5755 320.905 31.2776 321.168 31.0307C321.431 30.7837 321.742 30.5928 322.081 30.4697C322.421 30.3466 322.781 30.2938 323.141 30.3145C323.502 30.3352 323.854 30.429 324.177 30.5902C324.84 30.9304 325.349 31.5111 325.599 32.2137C325.849 32.9162 325.821 33.6876 325.521 34.3703Z" fill="black"/>
<path d="M301.398 32.4803L296.386 34.8324C296.218 34.5134 296.116 34.1635 296.087 33.8039C296.058 33.4444 296.103 33.0827 296.218 32.7409C296.333 32.3991 296.517 32.0844 296.758 31.8157C296.998 31.5471 297.291 31.3302 297.618 31.1783C298.295 30.8683 299.065 30.8307 299.769 31.0731C300.472 31.3155 301.056 31.8194 301.398 32.4803Z" fill="black"/>
<path d="M323.309 38.9485C323.365 39.596 323.166 40.2397 322.756 40.7438C322.346 41.248 321.756 41.5731 321.111 41.6506C320.798 41.6935 320.479 41.6728 320.173 41.5896C319.868 41.5064 319.583 41.3624 319.334 41.1664C319.086 40.9703 318.88 40.7261 318.728 40.4485C318.576 40.1708 318.482 39.8654 318.451 39.5505C318.392 38.9007 318.588 38.2534 318.999 37.7462C319.409 37.239 320.001 36.9119 320.649 36.8344C320.964 36.7915 321.284 36.8127 321.59 36.8967C321.896 36.9808 322.182 37.126 322.43 37.3235C322.679 37.521 322.885 37.7668 323.036 38.0461C323.187 38.3254 323.28 38.6323 323.309 38.9485Z" fill="black"/>
<path d="M310.835 38.4585L312.053 52.3889L319.263 49.6588L310.835 38.4585Z" fill="#9A4A4D"/>
<path d="M307.586 72.5776C301.594 71.6956 288.896 68.4895 286.698 63.7853C287.602 66.4715 289.301 68.8198 291.57 70.5196C295.406 73.4177 307.586 76.0078 307.586 76.0078V72.5776Z" fill="#9A4A4D"/>
<path d="M328.167 26.8381C328.167 26.8381 325.059 21.8819 310.835 23.1839C303.017 24.0162 295.477 26.5489 288.742 30.6042C284.539 33.1645 280.996 36.6745 278.396 40.8525C277.835 40.6084 277.247 40.4298 276.646 40.3205C275.341 40.0688 273.994 40.1568 272.734 40.5761C271.474 40.9954 270.343 41.7318 269.449 42.7146L269.379 42.7986C266.789 38.0525 264.871 33.2363 265.949 26.208C267.461 16.3097 277.276 9.40748 288.182 4.84332C301.076 -0.644862 315.217 0.755183 320.873 6.10336C326.529 11.4515 328.013 26.3341 328.167 26.8381Z" fill="#1D3557"/>
<path d="M268.035 204.896C264.118 202.303 260.592 199.163 257.563 195.572C260.097 195.871 262.658 195.871 265.193 195.572C268.665 194.844 269.393 193.388 269.169 192.128C269.043 191.148 266.635 191.456 262.813 190.266C258.469 188.764 253.985 187.704 249.429 187.102C247.21 186.579 245.262 185.258 243.954 183.391C242.75 181.893 235.638 169.391 229.366 156.119L258.361 120.249C265.599 112.143 274.251 97.5965 265.571 82.7C245.648 86.9001 245.802 86.4101 205.957 145.394C199.083 155.572 199.643 160.361 224.158 190.714C229.102 196.867 234.418 202.711 240.076 208.214C254.231 221.417 264.465 222.369 270.345 218.799C278.395 213.856 275.777 209.992 268.035 204.896Z" fill="#B16668"/>
<path d="M267.769 82.154C256.863 82.644 248.827 84.1981 241.168 93.5644C232.95 103.575 213.923 131.072 213.923 131.072C213.923 131.072 219.02 146.794 239.516 152.072L265.333 118.933C265.333 118.933 274.756 100.439 267.769 82.154Z" fill="#1D3557"/>
<path opacity="0.2" d="M267.769 82.154C256.863 82.644 248.827 84.1981 241.168 93.5644C232.95 103.575 213.923 131.072 213.923 131.072C213.923 131.072 219.02 146.794 239.516 152.072L265.333 118.933C265.333 118.933 274.756 100.439 267.769 82.154Z" fill="black"/>
<path d="M107.716 94.2644C97.9154 94.5304 95.1154 98.4645 89.2632 106.865C83.411 115.265 63.2923 147.214 63.2923 147.214L34.8573 158.135L38.6654 174.739C38.6654 174.739 62.7183 169.951 75.0667 167.431C76.6736 167.209 78.2075 166.618 79.5482 165.705C80.8889 164.792 82.0001 163.581 82.7949 162.167C84.377 159.773 100.184 134.908 100.184 134.908L107.716 94.2644Z" fill="#A8DADC"/>
<path d="M115.22 94.5304C105.966 92.2203 101.877 97.3305 98.7974 103.043C93.8692 112.087 90.9011 130.568 90.4811 164.337C90.2151 186.052 82.6548 212.302 81.3108 232.939C79.2667 263.852 78.3147 287.891 78.3147 287.891C96.6224 285.522 115.073 284.437 133.533 284.643L115.22 94.5304Z" fill="#A8DADC"/>
<path d="M168.562 409.443C168.562 409.443 174.162 371.432 171.796 349.157C169.808 330.046 166.994 322.052 166.602 317.698C166.602 317.698 163.382 272.896 164.264 234.829C164.67 216.811 163.76 196.944 150.935 175.705L150.473 174.865C149.339 181.865 138.601 186.345 129.024 187.466C119.803 188.492 108.322 186.667 94.5832 181.991C91.5171 200.01 88.0449 234.353 84.4888 271.776C82.7668 290.075 83.0888 305.476 82.7528 317.236C82.3467 333.196 83.8028 395.723 83.8028 395.723V398.369C83.7048 401.281 83.0048 403.311 81.0027 407.931C78.4482 413.89 74.8868 419.365 70.4743 424.116C69.0743 425.516 59.652 433.23 58.3779 434.91C54.2758 439.39 62.3681 442.246 68.4723 441.644C74.9125 441 84.9368 438.844 87.8909 435.078C89.865 432.544 91.5731 423.486 93.5891 420.909C100.407 412.243 103.207 408.505 103.389 405.677C103.641 400.539 101.989 398.453 101.415 395.541C102.129 389.506 114.394 357.921 115.206 340.295C115.598 331.894 113.806 316.998 113.806 316.998L124.404 255.69C126.798 272.91 131.404 311.692 132.986 324.082C135.269 341.093 143.669 369.864 148.961 392.461C150.949 400.959 151.929 404.739 152.419 410.283L152.545 412.271C152.545 414.777 152.797 441.56 153.609 447.272C155.289 459.131 165.804 457.997 167.806 448.518C169.5 440.454 168.548 415.295 168.604 412.201L168.562 409.443Z" fill="#FFA8A7"/>
<path d="M168.87 409.275C171.824 409.429 169.5 420.798 170.018 428.19C170.578 436.1 172.972 441.952 173.49 448.435C174.092 455.855 173.336 458.935 170.48 464.913C168.268 469.575 157.698 475.707 153.987 468.819C150.277 461.931 149.689 454.189 150.389 446.838C151.103 439.25 151.789 433.706 152.097 427.924C152.391 422.828 148.863 410.731 152.727 410.129L152.839 412.117C154.127 414.917 167.176 417.241 168.912 412.005L168.87 409.275Z" fill="#37474F"/>
<path d="M104.048 411.697C104.832 415.407 103.558 425.488 103.558 425.488C103.558 425.488 101.85 428.918 96.0814 431.088L93.9954 416.947L104.048 411.697Z" fill="#263238"/>
<path d="M96.0814 431.046L83.677 426.51L81.0309 415.281L94.8774 422.884L96.0814 431.046Z" fill="black"/>
<path d="M84.125 398.159V395.513C82.403 396.283 78.2028 409.877 72.8126 419.117C67.9125 427.518 58.5741 432.026 55.48 435.666C51.2799 440.538 58.8542 447.244 71.3706 444.99C77.5728 443.884 87.0511 440.244 89.7112 436.17C92.3713 432.096 93.4913 424.48 95.6614 421.484C97.8315 418.487 102.872 415.141 104.062 411.683C104.977 408.554 105.078 405.244 104.356 402.065C103.488 398.859 102.76 395.065 101.668 395.317L101.514 397.725C100.632 399.391 97.5655 401.267 91.2793 401.393C88.2692 401.463 85.3991 400.917 84.125 398.159Z" fill="#37474F"/>
<path d="M116.746 347.001C117.471 337.36 117.119 327.667 115.696 318.104L124.74 257.902C124.74 257.902 130.9 315.304 131.936 324.152C132.972 333.001 149.493 428.932 149.493 428.932C157.893 433.944 168.8 432.348 175.856 428.61C175.856 389.828 174.652 350.963 173.252 340.225C172.015 332.887 170.337 325.631 168.226 318.496C168.226 318.496 167.33 261.92 167.372 240.443C167.414 218.967 165.804 204.602 161.771 194.942C158.607 187.925 154.861 181.186 150.571 174.795C150.571 174.795 147.435 185.393 122.57 185.421C97.7053 185.449 94.9612 179.135 94.9612 179.135C94.9612 179.135 87.681 204.574 85.2589 242.991C83.2988 273.947 82.8508 288.031 82.2628 301.793C81.7588 313.554 81.4507 327.134 81.1847 350.893C80.9747 368.814 78.3846 408.295 78.3846 408.295C78.3846 408.295 90.5231 414.651 110.586 407.399C110.502 407.343 115.5 362.458 116.746 347.001Z" fill="#455A64"/>
<path d="M124.74 257.846L119.826 221.445C112.612 220.7 105.883 217.462 100.799 212.288C100.799 212.288 103.6 221.109 115.248 226.065L121.842 258.028L117.068 309.27L124.74 257.846Z" fill="#37474F"/>
<path d="M136.375 97.0645L148.079 98.3105C155.864 100.215 159.364 103.645 160.162 110.533C161.598 117.946 161.46 125.578 159.756 132.934C157.292 142.622 150.739 166.353 150.739 166.353C150.739 166.353 159.238 187.704 163.256 198.554C135.633 216.573 101.528 209.46 90.0753 198.554C91.0413 188.236 94.6955 178.645 95.5075 169.447C95.5075 169.447 94.9055 155.082 93.7714 148.852C85.0351 139.318 86.1412 130.19 90.0753 122.825C97.3135 109.245 108.276 97.3025 111.776 97.3165L136.375 97.0645Z" fill="#1D3557"/>
<path opacity="0.6" d="M136.375 97.0645L148.079 98.3105C155.864 100.215 159.364 103.645 160.162 110.533C161.598 117.946 161.46 125.578 159.756 132.934C157.292 142.622 150.739 166.353 150.739 166.353C150.739 166.353 159.238 187.704 163.256 198.554C135.633 216.573 101.528 209.46 90.0753 198.554C91.0413 188.236 94.6955 178.645 95.5075 169.447C95.5075 169.447 94.9055 155.082 93.7714 148.852C85.0351 139.318 86.1412 130.19 90.0753 122.825C97.3135 109.245 108.276 97.3025 111.776 97.3165L136.375 97.0645Z" fill="#A8DADC"/>
<path d="M115.094 88.8322C111.622 88.8322 111.23 89.4202 108.234 93.4103C106.456 95.7904 95.2274 114.313 95.2274 114.313C95.2274 114.313 104.174 102.567 110.908 99.0105C112.215 98.245 113.632 97.6832 115.108 97.3445L115.094 88.8322Z" fill="#A8DADC"/>
<path d="M137.033 97.0645C137.033 97.0645 127.386 122.433 125.188 139.654C122.99 156.875 130.537 208.886 131.699 239.715C132.553 262.116 134.681 294.485 134.681 294.485C141.526 295.155 148.429 294.939 155.219 293.841C166.56 291.699 170.074 289.837 176.556 285.609C176.556 285.609 170.956 229.229 168.156 207.318C165.566 186.696 154.477 166.353 154.477 166.353L167.806 111.177C167.806 111.177 167.148 101.881 158.383 99.2766C150.081 96.7985 137.033 97.0645 137.033 97.0645Z" fill="#A8DADC"/>
<path d="M154.099 148.628C154.099 148.628 152.293 142.062 149.801 130.848C147.309 119.633 147.701 113.137 148.555 108.237L163.046 129.434L154.505 166.339C160.315 177.462 164.605 189.314 167.26 201.578C158.538 176.895 148.975 169.489 148.975 169.489L154.099 148.628Z" fill="#A8DADC"/>
<path d="M140.673 128.286C140.673 127.222 140.771 124.911 140.953 122.013C141.863 107.789 142.283 94.9504 137.481 93.9144L137.061 95.8744C140.561 96.6305 139.399 114.971 138.965 121.887C138.769 124.855 138.615 127.194 138.671 128.37L140.673 128.286Z" fill="#1D3557"/>
<path d="M167.008 243.495C168.87 239.953 168.842 237.405 171.74 234.199C172.982 232.882 173.852 231.259 174.26 229.495C174.865 226.648 175.096 223.735 174.946 220.829L191.551 221.081C191.677 226.597 192.419 234.521 191.383 240.401C188.737 255.284 185.782 261.626 179.538 263.362C169.556 266.162 166.868 261.962 170.06 254.43C171.448 251.311 172.391 248.011 172.86 244.63C171.823 245.969 170.608 247.161 169.248 248.172C168.555 248.737 167.675 249.021 166.782 248.966C165.89 248.912 165.05 248.523 164.432 247.878C163.942 247.29 165.566 246.254 167.008 243.495Z" fill="#FFA8A7"/>
<path d="M150.823 97.7925C150.823 97.7925 161.548 97.1205 167.834 102.259C174.12 107.397 178.012 121.761 182.618 136.126C187.224 150.49 191.355 164.463 192.867 174.529C194.141 182.929 192.489 227.493 192.489 227.493C185.902 228.113 179.27 226.943 173.294 224.105L168.87 176.587L150.893 127.796C147.56 118.076 147.536 107.527 150.823 97.7925Z" fill="#A8DADC"/>
<path d="M17.6225 132.15L70.8243 150.924L85.4688 214.234L84.2788 215.494L33.6951 196.608L16.4325 133.41L17.6225 132.15Z" fill="#1D3557"/>
<path opacity="0.35" d="M69.6344 152.184L84.2789 215.495L85.4689 214.234L70.8244 150.924L69.6344 152.184Z" fill="black"/>
<path opacity="0.25" d="M16.4325 133.41L69.6343 152.184L84.2788 215.494L33.6951 196.608L16.4325 133.41Z" fill="black"/>
<g opacity="0.2">
<path d="M41.6054 183.741C41.1154 184.974 37.0413 187.718 31.1331 187.228L30.139 183.573L41.6054 183.741Z" fill="black"/>
</g>
<g opacity="0.1">
<path d="M32.4493 146.388L32.0153 144.26C31.7773 143.084 34.8994 143.7 39.0156 145.66L48.6199 148.572C52.722 150.504 56.5862 151.946 56.8242 153.108L57.2722 155.236L32.4493 146.388Z" fill="black"/>
</g>
<path d="M29.299 136.784C29.145 136.042 30.3491 136.196 32.0991 136.644L35.1652 137.694C35.1652 137.694 33.9052 134.614 41.1574 136.574C49.1377 138.744 49.3057 142.72 49.3057 142.72C50.5559 143.261 51.8368 143.729 53.1418 144.12C55.7879 144.988 56.0819 145.52 56.3059 146.248L56.6979 147.648L29.537 138.086C29.537 138.086 29.453 137.512 29.299 136.784Z" fill="#37474F"/>
<path d="M32.1412 140.886C34.6613 142.02 35.6973 142.58 36.0753 144.386C36.4953 146.444 36.5933 147.312 36.5933 147.312L50.7198 152.912C50.7198 152.912 49.9498 149.874 49.7678 148.852C49.5858 147.83 51.4478 147.83 53.8839 148.964L53.3099 146.43L31.3431 138.268L32.1412 140.886Z" fill="#37474F"/>
<path d="M31.6652 146.486L31.2311 144.372C30.9931 143.196 34.1152 143.812 38.2314 145.772L47.8357 148.67C51.9238 150.602 55.802 152.044 56.04 153.22L56.474 155.348L31.6652 146.486Z" fill="#37474F"/>
<path d="M22.3408 155.068C22.3408 155.068 24.2309 162.069 24.7209 163.777C25.2109 165.485 33.9332 169.545 38.3014 170.091C46.7017 171.141 47.5837 172.891 45.5816 178.869C43.7336 184.329 38.3014 186.388 30.7691 185.505C28.4102 185.042 26.2154 183.964 24.4062 182.381C22.597 180.798 21.2374 178.766 20.4648 176.489C18.0147 169.489 19.3307 162.055 18.3647 157.967C17.3987 153.878 20.2268 152.646 22.3408 155.068Z" fill="#FFA8A7"/>
<path d="M156.717 34.9444L149.269 41.0626C148.863 40.5976 148.555 40.0545 148.366 39.4667C148.177 38.8788 148.11 38.2584 148.169 37.6436C148.228 37.0289 148.412 36.4326 148.709 35.8914C149.007 35.3502 149.412 34.8755 149.899 34.4963C150.878 33.6852 152.129 33.2795 153.398 33.3629C154.666 33.4462 155.854 34.0121 156.717 34.9444Z" fill="#455A64"/>
<path d="M137.173 89.7562C137.173 85.0661 148.107 78.0378 153.749 68.1535C159.392 58.2692 156.55 42.0706 148.849 39.5785C148.849 39.5785 148.695 24.822 128.787 20.9019C108.878 16.9817 102.634 12.5856 99.1056 11.9556C95.5775 11.3255 94.9055 23.87 99.5396 27.1601C96.2068 25.85 93.1627 23.8999 90.5793 21.4199C87.6812 18.6198 86.5332 33.2083 92.7914 38.3325C92.7914 38.3325 87.6112 41.3706 88.2412 49.0428C88.3643 51.837 89.3984 54.5142 91.1857 56.6655C92.973 58.8169 95.4153 60.3242 98.1396 60.9572L137.173 89.7562Z" fill="#455A64"/>
<path d="M103.222 34.4823C98.4195 36.5684 93.8554 43.9047 93.9254 64.4434C93.9254 81.846 99.3155 86.2561 102.018 87.5442C104.72 88.8322 109.97 88.1882 115.094 87.3901V97.4005C115.094 97.4005 111.272 101.167 112.602 103.547C113.932 105.927 118.93 107.915 126.602 105.493C135.353 102.693 137.355 96.9105 137.355 96.9105L137.523 75.0137C137.523 75.0137 140.477 78.1078 145.643 73.6137C149.927 69.8755 151.467 63.4493 148.247 59.9212C145.027 56.3931 140.911 56.1131 137.201 60.0612L134.513 58.6612C129.767 58.1011 122.724 57.2611 117.628 54.713C104.468 47.8948 103.068 40.5866 103.222 34.4823Z" fill="#FFA8A7"/>
<path d="M137.173 57.1211V66.7955C136.55 66.8168 135.93 66.7103 135.351 66.4823C134.771 66.2543 134.245 65.9099 133.804 65.4702C133.363 65.0306 133.017 64.5051 132.787 63.9263C132.558 63.3475 132.449 62.7277 132.469 62.1053C132.47 60.8315 132.958 59.6063 133.832 58.68C134.706 57.7536 135.901 57.1961 137.173 57.1211Z" fill="#455A64"/>
<path d="M102.759 58.4792C102.776 58.7874 102.732 59.096 102.629 59.3871C102.526 59.6781 102.367 59.9459 102.16 60.175C101.953 60.4041 101.703 60.5899 101.423 60.7218C101.144 60.8537 100.842 60.9289 100.533 60.9432C100.057 60.9765 99.5819 60.8666 99.1686 60.6277C98.7553 60.3888 98.4228 60.0319 98.2139 59.6026C98.005 59.1733 97.9292 58.6914 97.9963 58.2188C98.0633 57.7461 98.2701 57.3043 98.5901 56.9501C98.9101 56.5958 99.3288 56.3454 99.7922 56.2308C100.256 56.1163 100.743 56.1429 101.191 56.3073C101.639 56.4716 102.028 56.7663 102.307 57.1533C102.587 57.5403 102.744 58.002 102.759 58.4792Z" fill="#263238"/>
<path d="M121.184 59.5012C121.205 59.8327 121.16 60.165 121.051 60.4788C120.942 60.7926 120.772 61.0817 120.551 61.3292C120.329 61.5767 120.061 61.7777 119.761 61.9206C119.461 62.0634 119.136 62.1452 118.804 62.1613C118.292 62.2001 117.779 62.0847 117.333 61.83C116.887 61.5753 116.527 61.1929 116.299 60.7321C116.072 60.2712 115.988 59.7528 116.057 59.2437C116.127 58.7345 116.347 58.2578 116.69 57.8748C117.033 57.4918 117.482 57.2201 117.98 57.0945C118.479 56.969 119.003 56.9953 119.486 57.1702C119.97 57.345 120.389 57.6605 120.692 58.0758C120.995 58.4912 121.166 58.9876 121.184 59.5012Z" fill="#263238"/>
<path d="M117.418 73.7537L109.97 76.0778C110.085 76.5821 110.302 77.0575 110.607 77.475C110.912 77.8925 111.3 78.2431 111.746 78.5053C112.191 78.7676 112.686 78.9359 113.199 78.9999C113.713 79.064 114.234 79.0225 114.73 78.8778C115.738 78.5143 116.572 77.7866 117.07 76.8382C117.568 75.8897 117.692 74.7892 117.418 73.7537Z" fill="#F28F8F"/>
<path d="M96.6414 54.181L102.606 51.8149C102.468 51.4059 102.246 51.0302 101.954 50.7121C101.662 50.394 101.307 50.1404 100.912 49.9676C100.516 49.7949 100.089 49.7068 99.6572 49.7091C99.2256 49.7114 98.7992 49.804 98.4055 49.9809C97.6354 50.3289 97.0255 50.9553 96.6983 51.7344C96.3711 52.5135 96.3508 53.3876 96.6414 54.181Z" fill="#263238"/>
<path d="M108.402 56.5891L108.696 70.8556L101.038 69.1475L108.402 56.5891Z" fill="#F28F8F"/>
<path d="M115.094 87.3341C120.484 86.7041 131.601 83.61 133.407 79.1019C132.683 81.3651 131.298 83.3596 129.431 84.8281C126.07 87.7122 115.08 90.7083 115.08 90.7083L115.094 87.3341Z" fill="#F28F8F"/>
<path d="M137.425 88.9022C138.825 88.6222 140.099 89.2242 141.247 91.1843C142.395 93.1444 144.929 97.2605 144.929 97.2605C144.929 97.2605 146.231 110.925 144.929 114.313C143.795 117.267 131.307 128.314 131.307 128.314C131.307 128.314 134.569 140.592 134.681 144.61C134.793 148.628 126.938 163.931 126.056 171.757C126.056 171.757 123.592 147.158 124.74 138.324C126.756 122.923 133.967 103.141 137.341 96.8545L137.425 88.9022Z" fill="#A8DADC"/>
<path d="M137.747 173.437C135.929 174.637 133.792 175.262 131.615 175.229L131.797 173.829C133.463 173.85 135.1 173.393 136.515 172.513C135.161 171.441 133.976 170.172 133.001 168.747C130.998 165.639 127.848 144.428 129.78 139.71C131.377 135.79 136.067 127.291 139.581 127.291H139.665C143.235 127.445 147.239 136.434 148.513 140.508C150.039 145.366 145.097 166.241 142.843 169.167C141.743 170.499 140.456 171.664 139.021 172.625C140.362 173.613 141.953 174.204 143.613 174.333V175.733H143.445C141.369 175.514 139.395 174.719 137.747 173.437ZM131.068 140.242C129.304 144.582 132.329 165.107 134.177 167.977C135.183 169.421 136.412 170.697 137.817 171.757C139.312 170.827 140.646 169.659 141.765 168.299C143.865 165.597 148.625 145.394 147.225 140.928C145.503 135.468 141.751 128.79 139.651 128.706C137.495 128.692 133.239 134.978 131.068 140.242Z" fill="#455A64"/>
<path d="M129.669 174.487C129.657 174.757 129.699 175.027 129.793 175.281C129.886 175.535 130.028 175.768 130.211 175.967C130.395 176.166 130.616 176.327 130.861 176.441C131.107 176.554 131.372 176.618 131.643 176.629C132.189 176.648 132.721 176.452 133.124 176.083C133.527 175.714 133.77 175.201 133.799 174.655C133.821 174.098 133.621 173.555 133.243 173.146C132.865 172.736 132.34 172.493 131.783 172.471C131.226 172.449 130.683 172.649 130.273 173.027C129.863 173.405 129.621 173.93 129.599 174.487H129.669Z" fill="#263238"/>
<path d="M141.625 174.949C141.601 175.495 141.794 176.028 142.163 176.431C142.532 176.834 143.046 177.074 143.592 177.098C144.138 177.122 144.671 176.929 145.074 176.56C145.477 176.191 145.717 175.677 145.741 175.131C145.753 174.861 145.712 174.591 145.619 174.337C145.527 174.082 145.385 173.849 145.203 173.649C145.02 173.45 144.8 173.288 144.555 173.174C144.309 173.059 144.044 172.994 143.774 172.982C143.504 172.97 143.234 173.011 142.979 173.104C142.725 173.196 142.492 173.338 142.292 173.52C142.092 173.703 141.931 173.923 141.816 174.168C141.702 174.414 141.637 174.679 141.625 174.949Z" fill="#263238"/>
<path d="M129.431 148.908L130.607 148.824C130.667 148.821 130.727 148.805 130.781 148.779C130.836 148.752 130.885 148.715 130.925 148.669C130.966 148.624 130.997 148.571 131.016 148.513C131.036 148.456 131.044 148.395 131.041 148.334C130.704 145.682 130.827 142.992 131.405 140.382C133.477 135.314 137.761 128.972 139.637 129.056C141.513 129.14 145.237 135.818 146.889 141.04C147.267 142.23 147.141 145.114 146.581 148.992C146.561 149.113 146.589 149.237 146.66 149.336C146.731 149.436 146.839 149.504 146.959 149.524L148.135 149.706C148.196 149.714 148.258 149.71 148.317 149.693C148.376 149.677 148.431 149.649 148.479 149.612C148.527 149.574 148.568 149.527 148.597 149.473C148.627 149.42 148.646 149.361 148.653 149.3C149.297 144.946 149.381 141.95 148.891 140.41C148.023 137.61 143.893 127.123 139.735 126.941C135.577 126.759 130.565 136.868 129.459 139.542C128.843 141.04 128.661 144.022 128.941 148.418C128.936 148.484 128.946 148.549 128.97 148.611C128.993 148.672 129.029 148.727 129.075 148.774C129.121 148.82 129.177 148.856 129.238 148.879C129.3 148.902 129.365 148.912 129.431 148.908Z" fill="#1D3557"/>
<path d="M6.95435 53.537V70.9256L22.0189 62.2313V79.6339L37.0834 70.9256V53.537L52.1479 44.8427V27.4401L37.0414 36.1764L37.0834 18.7458L22.0189 27.4401V44.8427L6.95435 53.537Z" fill="#1D3557"/>
<path d="M6.95422 70.9256L0.5 67.2015V49.8129L6.95422 53.537V70.9256Z" fill="#1D3557"/>
<path d="M22.0187 44.8427L15.5645 41.1185L0.5 49.8128L6.95422 53.537L22.0187 44.8427Z" fill="#1D3557"/>
<path d="M22.0187 27.4401L15.5645 23.716V41.1186L22.0187 44.8427V27.4401Z" fill="#1D3557"/>
<path d="M37.0832 18.7458L30.629 15.0217L15.5645 23.716L22.0187 27.4401L37.0832 18.7458Z" fill="#1D3557"/>
<path d="M22.0187 79.6339L15.5645 75.8957V65.9554L22.0187 62.2313V79.6339Z" fill="#1D3557"/>
<g opacity="0.2">
<path d="M6.95422 70.9256L0.5 67.2015V49.8129L6.95422 53.537V70.9256Z" fill="black"/>
<path d="M22.0187 27.4401L15.5645 23.716V41.1186L22.0187 44.8427V27.4401Z" fill="black"/>
<path d="M22.0187 79.6339L15.5645 75.8957V65.9554L22.0187 62.2313V79.6339Z" fill="black"/>
</g>
<path d="M52.1478 27.4401L45.6936 23.716L37.0553 28.6721L37.0413 36.1764L52.1478 27.4401Z" fill="#1D3557"/>
<g opacity="0.5">
<path d="M22.0187 44.8427L15.5645 41.1185L0.5 49.8128L6.95422 53.537L22.0187 44.8427Z" fill="#A8DADC"/>
<path d="M37.0832 18.7458L30.629 15.0217L15.5645 23.716L22.0187 27.4401L37.0832 18.7458Z" fill="#A8DADC"/>
<path d="M52.1478 27.4401L45.6936 23.716L37.0553 28.6721L37.0413 36.1764L52.1478 27.4401Z" fill="#A8DADC"/>
</g>
<path d="M556.683 27.1601C556.683 28.8681 557.817 30.5902 560.085 31.8923C562.627 33.1835 565.438 33.8564 568.289 33.8564C571.141 33.8564 573.951 33.1835 576.494 31.8923C578.762 30.5902 579.896 28.8681 579.896 27.1601V11.8996C579.896 8.81765 578.671 5.86196 576.492 3.68271C574.313 1.50347 571.357 0.279175 568.275 0.279175C565.193 0.279175 562.238 1.50347 560.058 3.68271C557.879 5.86196 556.655 8.81765 556.655 11.8996L556.683 27.1601Z" fill="#A8DADC"/>
<path d="M556.683 47.3068C556.683 50.3887 557.907 53.3444 560.086 55.5236C562.266 57.7029 565.221 58.9272 568.303 58.9272C571.385 58.9272 574.341 57.7029 576.52 55.5236C578.699 53.3444 579.924 50.3887 579.924 47.3068V27.1601C579.924 28.8681 578.79 30.5902 576.522 31.8922C573.979 33.1834 571.168 33.8564 568.317 33.8564C565.466 33.8564 562.655 33.1834 560.113 31.8922C557.831 30.5902 556.683 28.8821 556.683 27.1601V47.3068Z" fill="#1D3557"/>
<path opacity="0.4" d="M572.741 53.565C572.157 53.5668 571.579 53.4534 571.039 53.2312C570.499 53.009 570.008 52.6824 569.594 52.2701C569.18 51.8577 568.852 51.3679 568.628 50.8285C568.404 50.2891 568.289 49.7108 568.289 49.1268V25.48C571.151 25.4183 573.981 26.0932 576.507 27.4401C576.759 27.5801 576.969 27.7201 577.193 27.8741V49.1268C577.19 50.3052 576.719 51.434 575.885 52.2659C575.05 53.0979 573.92 53.565 572.741 53.565Z" fill="#A8DADC"/>
<path d="M556.683 27.1601C556.683 28.8681 557.817 30.5902 560.085 31.8923C562.627 33.1835 565.438 33.8564 568.289 33.8564C571.141 33.8564 573.951 33.1835 576.494 31.8923C578.762 30.5902 579.896 28.8681 579.896 27.1601V11.8996C579.896 8.81765 578.671 5.86196 576.492 3.68271C574.313 1.50347 571.357 0.279175 568.275 0.279175C565.193 0.279175 562.238 1.50347 560.058 3.68271C557.879 5.86196 556.655 8.81765 556.655 11.8996L556.683 27.1601Z" fill="#A8DADC"/>
<path opacity="0.1" d="M576.508 31.8922C573.965 33.1835 571.154 33.8564 568.303 33.8564C565.452 33.8564 562.641 33.1835 560.099 31.8922C557.831 30.5902 556.683 28.8821 556.683 27.1601V28.8821C556.683 30.6042 557.817 32.3123 560.085 33.6283C562.627 34.9195 565.438 35.5925 568.289 35.5925C571.14 35.5925 573.951 34.9195 576.494 33.6283C578.762 32.3123 579.896 30.6042 579.896 28.8821V27.2021C579.91 28.8821 578.776 30.5902 576.508 31.8922Z" fill="black"/>
<path d="M575.122 2.51928C573.39 1.25874 571.344 0.501672 569.21 0.331833C567.075 0.161994 564.935 0.586011 563.027 1.55697C561.118 2.52793 559.515 4.00798 558.396 5.83334C557.276 7.65871 556.683 9.75824 556.683 11.8996V27.1601C556.683 28.8682 557.817 30.5903 560.085 31.8923C561.13 32.5027 562.25 32.9734 563.417 33.2923V9.81354C563.431 3.12131 571.803 0.671222 575.122 2.51928Z" fill="#E0E0E0"/>
<path d="M572.741 5.76735C571.561 5.76735 570.428 6.23641 569.593 7.07135C568.758 7.90629 568.289 9.03871 568.289 10.2195V33.8663C571.152 33.9231 573.982 33.2434 576.507 31.8922C576.759 31.7522 576.969 31.6122 577.193 31.4722V10.2195C577.193 9.03871 576.724 7.90629 575.889 7.07135C575.055 6.23641 573.922 5.76735 572.741 5.76735Z" fill="#A8DADC"/>
<path opacity="0.1" d="M569.745 58.8292L570.403 58.7172L570.865 58.6332L571.383 58.4932L571.915 58.3391L572.167 58.2411C572.931 57.9756 573.663 57.6282 574.351 57.2051C574.6 57.0628 574.839 56.9037 575.065 56.7291C571.747 58.5632 563.375 56.1271 563.375 49.4348V33.2363C562.208 32.9174 561.088 32.4467 560.043 31.8362C557.831 30.5902 556.683 28.8821 556.683 27.1601V47.3068C556.687 50.3876 557.912 53.3411 560.09 55.5195C562.269 57.698 565.222 58.9235 568.303 58.9272C568.667 58.9272 569.031 58.9272 569.381 58.9272L569.745 58.8292Z" fill="black"/>
</svg>
