<svg width="292" height="46" viewBox="0 0 292 46" fill="none" xmlns="http://www.w3.org/2000/svg">
<path fill-rule="evenodd" clip-rule="evenodd" d="M3.83333 0C2.81667 0 1.84165 0.403868 1.12276 1.12276C0.403868 1.84165 0 2.81667 0 3.83333V42.1667C0 43.1833 0.403868 44.1583 1.12276 44.8772C1.84165 45.5961 2.81667 46 3.83333 46H42.1667C43.1833 46 44.1583 45.5961 44.8772 44.8772C45.5961 44.1583 46 43.1833 46 42.1667V3.83333C46 2.81667 45.5961 1.84165 44.8772 1.12276C44.1583 0.403868 43.1833 0 42.1667 0H3.83333ZM16.33 7.66667C11.4617 7.66667 7.90944 12.7548 7.90944 18.2416C7.90944 19.5155 8.07939 20.7422 8.38733 21.9177H12.5874L17.0839 14.0556L19.8937 23.7271L23.3309 19.3788H30.6168C30.7898 19.3773 30.9613 19.4098 31.1217 19.4747C31.282 19.5395 31.428 19.6353 31.5513 19.7566C31.6746 19.8778 31.7728 20.0222 31.8402 20.1815C31.9077 20.3407 31.9431 20.5117 31.9444 20.6847C31.9429 20.8575 31.9074 21.0283 31.8399 21.1875C31.7723 21.3466 31.6741 21.4908 31.5508 21.6119C31.4276 21.7331 31.2816 21.8288 31.1214 21.8935C30.9611 21.9583 30.7897 21.9908 30.6168 21.9893H24.6304L18.7782 29.3889L16.2789 20.7869L14.1399 24.5269H9.31756C13.1994 33.1085 23.7603 38.3333 23.7603 38.3333C23.7603 38.3333 39.6111 29.9856 39.6111 18.2416C39.6111 12.7561 36.0576 7.66667 31.1906 7.66667C27.8121 7.66667 25.3064 9.95006 23.7603 13.1867C22.2129 9.95006 19.7072 7.66667 16.33 7.66667ZM5.11111 21.9177H8.37456L9.30733 24.5282H5.11111V21.9177Z" fill="#E63946"/>
<path d="M16.33 7.66667C11.4617 7.66667 7.90944 12.7548 7.90944 18.2416C7.90944 19.5155 8.07939 20.7422 8.38733 21.9177H12.5874L17.0839 14.0556L19.8937 23.7271L23.3309 19.3788H30.6168C30.7898 19.3773 30.9613 19.4098 31.1217 19.4747C31.282 19.5395 31.428 19.6353 31.5513 19.7566C31.6746 19.8778 31.7728 20.0222 31.8402 20.1815C31.9077 20.3407 31.9431 20.5117 31.9444 20.6847C31.9429 20.8575 31.9074 21.0283 31.8399 21.1875C31.7723 21.3466 31.6741 21.4908 31.5508 21.6119C31.4276 21.7331 31.2816 21.8288 31.1214 21.8935C30.9611 21.9583 30.7897 21.9908 30.6168 21.9893H24.6304L18.7782 29.3889L16.2789 20.7869L14.1399 24.5269H9.31756C13.1994 33.1085 23.7603 38.3333 23.7603 38.3333C23.7603 38.3333 39.6111 29.9856 39.6111 18.2416C39.6111 12.7561 36.0576 7.66667 31.1906 7.66667C27.8121 7.66667 25.3064 9.95006 23.7603 13.1867C22.2129 9.95006 19.7072 7.66667 16.33 7.66667Z" fill="#1D3557"/>
<path d="M5.11111 21.9177H8.37456L9.30733 24.5282H5.11111V21.9177Z" fill="#1D3557"/>
<path d="M55.6875 36V9.81818H62.7955V30.2727H73.3807V36H55.6875Z" fill="#F1FAEE"/>
<path d="M92.3619 9.81818V36H85.2539V9.81818H92.3619Z" fill="#F1FAEE"/>
<path d="M104.73 36V9.81818H123.14V15.5455H111.838V20.0455H122.015V25.7727H111.838V36H104.73Z" fill="#F1FAEE"/>
<path d="M134.754 36V9.81818H153.623V15.5455H141.862V20.0455H152.652V25.7727H141.862V30.2727H153.572V36H134.754Z" fill="#F1FAEE"/>
<path d="M190.592 19.6364H183.381C183.33 19.0398 183.194 18.4986 182.972 18.0128C182.759 17.527 182.461 17.1094 182.077 16.7599C181.702 16.402 181.246 16.1293 180.71 15.9418C180.173 15.7457 179.563 15.6477 178.881 15.6477C177.688 15.6477 176.678 15.9375 175.852 16.517C175.033 17.0966 174.411 17.9276 173.985 19.0099C173.567 20.0923 173.359 21.392 173.359 22.9091C173.359 24.5114 173.572 25.8537 173.998 26.9361C174.433 28.0099 175.059 28.8196 175.877 29.3651C176.695 29.902 177.68 30.1705 178.83 30.1705C179.487 30.1705 180.075 30.0895 180.594 29.9276C181.114 29.7571 181.566 29.5142 181.95 29.1989C182.333 28.8835 182.644 28.5043 182.883 28.0611C183.13 27.6094 183.296 27.1023 183.381 26.5398L190.592 26.5909C190.506 27.6989 190.195 28.8281 189.658 29.9787C189.121 31.1207 188.359 32.1776 187.37 33.1491C186.39 34.1122 185.175 34.8878 183.727 35.4759C182.278 36.0639 180.594 36.358 178.677 36.358C176.273 36.358 174.117 35.8423 172.208 34.8111C170.308 33.7798 168.803 32.2628 167.695 30.2599C166.596 28.2571 166.046 25.8068 166.046 22.9091C166.046 19.9943 166.609 17.5398 167.734 15.5455C168.859 13.5426 170.376 12.0298 172.285 11.0071C174.194 9.97585 176.325 9.46023 178.677 9.46023C180.33 9.46023 181.852 9.68608 183.241 10.1378C184.63 10.5895 185.849 11.25 186.897 12.1193C187.945 12.9801 188.789 14.0412 189.428 15.3026C190.067 16.5639 190.455 18.0085 190.592 19.6364Z" fill="#F1FAEE"/>
<path d="M272.707 36V9.81818H291.576V15.5455H279.815V20.0455H290.605V25.7727H279.815V30.2727H291.525V36H272.707Z" fill="#F1FAEE"/>
<path fill-rule="evenodd" clip-rule="evenodd" d="M201.138 36H208.809L210.322 30.9886H218.955L220.468 36H228.138L219.496 9.81818H209.781L201.138 36ZM217.35 25.6705L218.955 30.9886H221.798V25.6705H217.35ZM217.35 25.6705H211.927L214.536 17.0284H214.741L217.35 25.6705Z" fill="#F1FAEE"/>
<path d="M221.798 30.9886V25.6705H217.35L218.955 30.9886H221.798Z" fill="#F1FAEE"/>
<path fill-rule="evenodd" clip-rule="evenodd" d="M239.66 9.81818V36H246.768V27.358H249.228L253.825 36H261.547L256.229 26.2383C257.588 25.5865 258.653 24.66 259.424 23.4588C260.26 22.1719 260.677 20.5909 260.677 18.7159C260.677 16.858 260.272 15.2642 259.463 13.9347C258.653 12.6051 257.52 11.5866 256.062 10.8793C254.605 10.1719 252.904 9.81818 250.961 9.81818H239.66ZM246.768 21.8352H243.956V27.358H246.768V21.8352ZM246.768 21.8352V15.4943H249.274C250.109 15.4943 250.821 15.6094 251.409 15.8395C252.005 16.0611 252.461 16.4105 252.777 16.8878C253.1 17.3565 253.262 17.9659 253.262 18.7159C253.262 19.4574 253.1 20.0582 252.777 20.5185C252.461 20.9787 252.005 21.3153 251.409 21.5284C250.821 21.733 250.109 21.8352 249.274 21.8352H246.768Z" fill="#F1FAEE"/>
<path d="M243.956 21.8352V27.358H246.768V21.8352H243.956Z" fill="#F1FAEE"/>
</svg>
