<svg width="46" height="46" viewBox="0 0 46 46" fill="none" xmlns="http://www.w3.org/2000/svg">
<path fill-rule="evenodd" clip-rule="evenodd" d="M3.83333 0C2.81667 0 1.84165 0.403868 1.12276 1.12276C0.403868 1.84165 0 2.81667 0 3.83333V42.1667C0 43.1833 0.403868 44.1583 1.12276 44.8772C1.84165 45.5961 2.81667 46 3.83333 46H42.1667C43.1833 46 44.1583 45.5961 44.8772 44.8772C45.5961 44.1583 46 43.1833 46 42.1667V3.83333C46 2.81667 45.5961 1.84165 44.8772 1.12276C44.1583 0.403868 43.1833 0 42.1667 0H3.83333ZM16.33 7.66667C11.4617 7.66667 7.90944 12.7548 7.90944 18.2416C7.90944 19.5155 8.07939 20.7422 8.38733 21.9177H12.5874L17.0839 14.0556L19.8937 23.7271L23.3309 19.3788H30.6168C30.7898 19.3773 30.9613 19.4098 31.1217 19.4747C31.282 19.5395 31.428 19.6353 31.5513 19.7566C31.6746 19.8778 31.7728 20.0222 31.8402 20.1815C31.9077 20.3407 31.9431 20.5117 31.9444 20.6847C31.9429 20.8575 31.9074 21.0283 31.8399 21.1875C31.7723 21.3466 31.6741 21.4908 31.5508 21.6119C31.4276 21.7331 31.2816 21.8288 31.1214 21.8935C30.9611 21.9583 30.7897 21.9908 30.6168 21.9893H24.6304L18.7782 29.3889L16.2789 20.7869L14.1399 24.5269H9.31756C13.1994 33.1085 23.7603 38.3333 23.7603 38.3333C23.7603 38.3333 39.6111 29.9856 39.6111 18.2416C39.6111 12.7561 36.0576 7.66667 31.1906 7.66667C27.8121 7.66667 25.3064 9.95006 23.7603 13.1867C22.2129 9.95006 19.7072 7.66667 16.33 7.66667ZM5.11111 21.9177H8.37456L9.30733 24.5282H5.11111V21.9177Z" fill="#E63946"/>
<path d="M16.33 7.66667C11.4617 7.66667 7.90944 12.7548 7.90944 18.2416C7.90944 19.5155 8.07939 20.7422 8.38733 21.9177H12.5874L17.0839 14.0556L19.8937 23.7271L23.3309 19.3788H30.6168C30.7898 19.3773 30.9613 19.4098 31.1217 19.4747C31.282 19.5395 31.428 19.6353 31.5513 19.7566C31.6746 19.8778 31.7728 20.0222 31.8402 20.1815C31.9077 20.3407 31.9431 20.5117 31.9444 20.6847C31.9429 20.8575 31.9074 21.0283 31.8399 21.1875C31.7723 21.3466 31.6741 21.4908 31.5508 21.6119C31.4276 21.7331 31.2816 21.8288 31.1214 21.8935C30.9611 21.9583 30.7897 21.9908 30.6168 21.9893H24.6304L18.7782 29.3889L16.2789 20.7869L14.1399 24.5269H9.31756C13.1994 33.1085 23.7603 38.3333 23.7603 38.3333C23.7603 38.3333 39.6111 29.9856 39.6111 18.2416C39.6111 12.7561 36.0576 7.66667 31.1906 7.66667C27.8121 7.66667 25.3064 9.95006 23.7603 13.1867C22.2129 9.95006 19.7072 7.66667 16.33 7.66667Z" fill="#1D3557"/>
<path d="M5.11111 21.9177H8.37456L9.30733 24.5282H5.11111V21.9177Z" fill="#1D3557"/>
</svg>
